<svg width="100" height="43" viewBox="0 0 100 43" fill="none" xmlns="http://www.w3.org/2000/svg">
<rect width="100" height="43" rx="21.5" fill="url(#paint0_linear_0_828)"/>
<path d="M50.8 2.43396H78.134C88.6639 2.43396 97.2001 10.9701 97.2001 21.5C97.2001 32.0299 88.6639 40.566 78.134 40.566H50.8V2.43396Z" fill="#1E1E1E"/>
<path d="M29.1991 27.3948L37.3986 8.92456H45.5713V34.0755H37.7737V21.3035L32.2806 34.0755H26.0908L20.6512 21.3035V34.0755H12.8V8.92456H21.0264L29.1991 27.3948Z" fill="#1E1E1E"/>
<path d="M57.6001 34.0755V8.92456H65.4513V21.5V34.0755H57.6001ZM82.413 8.92456L73.2488 21.5L83.0025 34.0755H75.1514L65.4513 21.5L74.6154 8.92456H82.413Z" fill="url(#paint1_linear_0_828)"/>
<defs>
<linearGradient id="paint0_linear_0_828" x1="50" y1="0" x2="50" y2="43" gradientUnits="userSpaceOnUse">
<stop stop-color="#D5AB2F"/>
<stop offset="0.161458" stop-color="#DAB034"/>
<stop offset="0.515625" stop-color="#FDFF57"/>
<stop offset="0.848958" stop-color="#DAB034"/>
<stop offset="1" stop-color="#D5AB2F"/>
</linearGradient>
<linearGradient id="paint1_linear_0_828" x1="70.3013" y1="8.92456" x2="70.3013" y2="34.0755" gradientUnits="userSpaceOnUse">
<stop stop-color="#D5AB2F"/>
<stop offset="0.161458" stop-color="#DAB034"/>
<stop offset="0.515625" stop-color="#FDFF57"/>
<stop offset="0.848958" stop-color="#DAB034"/>
<stop offset="1" stop-color="#D5AB2F"/>
</linearGradient>
</defs>
</svg>
