<svg width="22" height="23" viewBox="0 0 22 23" fill="none" xmlns="http://www.w3.org/2000/svg">
<path fill-rule="evenodd" clip-rule="evenodd" d="M11 22.6316C4.92487 22.6316 0 17.7067 0 11.6316C0 5.55646 4.92487 0.631592 11 0.631592C17.0751 0.631592 22 5.55646 22 11.6316C22 17.7067 17.0751 22.6316 11 22.6316ZM11 20.6316C15.9706 20.6316 20 16.6022 20 11.6316C20 6.66103 15.9706 2.63159 11 2.63159C6.02943 2.63159 1.99999 6.66103 1.99999 11.6316C1.99999 16.6022 6.02943 20.6316 11 20.6316ZM14.2929 7.92448L9.00002 13.2174L6.70712 10.9245L5.29291 12.3387L9.00002 16.0458L15.7071 9.33869L14.2929 7.92448Z" fill="#27AE60"/>
</svg>
