<svg width="313" height="291" viewBox="0 0 313 291" fill="none" xmlns="http://www.w3.org/2000/svg">
<path d="M254.715 19.3539C254.715 19.3539 222.725 -8.02941 180.066 2.77517C137.408 13.5798 118.782 49.7043 93.8777 74.2406C80.8339 87.0925 61.8879 91.5071 46.5407 101.272C-2.58773 132.462 2.86654 205.431 39.5269 233.758C71.2689 258.278 111.56 261.709 164.479 245.41C217.399 229.112 255.227 219.467 288.968 170.026C322.709 120.586 294.03 56.4302 254.715 19.3539Z" fill="#FAB915"/>
<path opacity="0.7" d="M254.715 19.3539C254.715 19.3539 222.725 -8.02941 180.066 2.77517C137.408 13.5798 118.782 49.7043 93.8777 74.2406C80.8339 87.0925 61.8879 91.5071 46.5407 101.272C-2.58773 132.462 2.86654 205.431 39.5269 233.758C71.2689 258.278 111.56 261.709 164.479 245.41C217.399 229.112 255.227 219.467 288.968 170.026C322.709 120.586 294.03 56.4302 254.715 19.3539Z" fill="white"/>
<path d="M4.03427 137.876C5.68974 138.596 9.74446 138.508 9.74446 138.508C9.74446 138.508 8.87273 135.853 8.80076 135.693C7.90504 133.83 5.09793 130.759 2.80266 131.071C2.42461 131.133 2.06391 131.274 1.74394 131.485C1.42397 131.696 1.15187 131.972 0.945276 132.294C0.738678 132.617 0.602195 132.98 0.54467 133.359C0.487145 133.737 0.509861 134.124 0.611348 134.494C0.995227 136.077 2.61871 137.261 4.03427 137.876Z" fill="#263238"/>
<path d="M45.0371 138.764C45.0371 138.764 45.7728 136.069 45.8368 135.893C46.1167 133.854 45.4689 129.735 43.3896 128.735C43.0397 128.577 42.6604 128.495 42.2765 128.493C41.8925 128.492 41.5126 128.571 41.1615 128.727C40.8105 128.882 40.4962 129.11 40.2393 129.396C39.9824 129.681 39.7887 130.017 39.6708 130.383C39.111 131.91 39.8147 133.79 40.6545 135.085C41.6062 136.605 45.0371 138.764 45.0371 138.764Z" fill="#263238"/>
<path d="M57.1373 124.073C54.842 123.825 52.1149 126.976 51.2751 128.871C51.2032 129.039 50.3634 131.718 50.4034 131.71H50.4514C50.0195 132.206 49.5557 132.742 49.0678 133.31C48.1721 134.414 47.1644 135.669 46.1648 137.109C45.0676 138.648 44.0609 140.251 43.1497 141.907C42.1233 143.758 41.2616 145.696 40.5745 147.697C40.5745 147.697 40.5745 147.745 40.5745 147.769C40.5745 147.098 40.5745 145.202 40.5745 145.058C40.3106 143.011 38.5991 139.22 36.3279 138.796C35.9486 138.736 35.561 138.757 35.1902 138.856C34.8194 138.956 34.4737 139.133 34.1757 139.375C33.8778 139.617 33.6341 139.919 33.4606 140.262C33.2871 140.605 33.1877 140.98 33.1689 141.363C33.0409 142.963 34.2165 144.618 35.3682 145.642C36.6638 146.802 40.2626 147.921 40.5425 148.041C39.8983 150.098 39.3907 152.195 39.023 154.319C38.8071 155.551 38.6231 156.806 38.4552 158.062C38.4552 157.478 38.4552 156.95 38.4552 156.878C38.1913 154.839 36.4718 151.04 34.2005 150.616C33.8214 150.559 33.4344 150.582 33.0646 150.683C32.6948 150.784 32.3503 150.962 32.0534 151.204C31.7565 151.447 31.5137 151.749 31.3408 152.092C31.1679 152.434 31.0687 152.809 31.0495 153.192C30.9216 154.791 32.0972 156.439 33.2488 157.47C34.4005 158.502 37.4555 159.526 38.2713 159.781C38.2073 160.269 38.1433 160.749 38.0873 161.229C37.8074 163.548 37.5435 165.868 37.2156 168.131C37.0956 168.931 36.9517 169.73 36.8077 170.53C36.8077 170.01 36.8077 169.57 36.8077 169.506C36.5438 167.459 34.8243 163.66 32.5531 163.244C32.1744 163.186 31.7876 163.207 31.4178 163.307C31.0479 163.408 30.7033 163.585 30.4062 163.827C30.1092 164.069 29.8662 164.371 29.6933 164.712C29.5203 165.054 29.4211 165.429 29.4021 165.812C29.2741 167.411 30.4497 169.067 31.6014 170.09C32.753 171.114 35.5121 172.05 36.4798 172.362C36.3039 173.161 36.1439 173.961 35.944 174.761C35.792 175.273 35.6881 175.784 35.5121 176.296C35.3362 176.808 35.1842 177.312 35.0163 177.816C34.6724 178.767 34.3205 179.759 33.9606 180.679C33.7127 181.319 33.4648 181.926 33.2169 182.542C33.3448 181.743 33.5527 180.191 33.5607 180.063C33.5346 178.248 33.0445 176.469 32.1372 174.897C32.1398 174.696 32.1264 174.495 32.0972 174.297C32.0492 173.916 31.9215 173.55 31.7226 173.222C31.5237 172.894 31.258 172.611 30.9427 172.392C30.6274 172.173 30.2696 172.023 29.8926 171.952C29.5155 171.881 29.1277 171.889 28.7543 171.978C26.523 172.569 25.1074 176.488 25.0035 178.552C25.0035 178.672 25.0754 179.999 25.1394 180.831C25.0274 180.343 24.9235 179.871 24.8035 179.375C24.5636 178.392 24.2997 177.408 24.0038 176.352C23.8518 175.848 23.6919 175.345 23.5399 174.825C23.388 174.305 23.18 173.793 22.9961 173.265C22.5562 172.058 22.0524 170.866 21.5166 169.658C22.3803 169.45 25.4353 168.675 26.6669 167.731C27.8985 166.787 29.1861 165.26 29.1701 163.628C29.1816 163.244 29.1118 162.863 28.9655 162.508C28.8192 162.153 28.5995 161.833 28.321 161.568C28.0424 161.304 27.7112 161.102 27.3489 160.974C26.9867 160.847 26.6017 160.797 26.2191 160.829C23.9238 161.077 21.9324 164.74 21.5166 166.755C21.5166 166.883 21.3486 168.355 21.2926 169.155C20.9647 168.443 20.6368 167.723 20.2849 167.003C19.2613 164.94 18.1576 162.877 17.086 160.821C16.7501 160.189 16.4302 159.558 16.0943 158.926C16.4062 158.854 20.093 158.006 21.4366 156.95C22.6602 156.015 23.9558 154.479 23.9398 152.848C23.9512 152.464 23.8815 152.082 23.7352 151.727C23.5888 151.372 23.3692 151.052 23.0906 150.788C22.812 150.524 22.4808 150.321 22.1186 150.194C21.7564 150.066 21.3714 150.017 20.9887 150.049C18.6934 150.296 16.7021 153.959 16.2862 155.975C16.2862 156.127 16.0623 158.262 16.0383 158.806C15.3105 157.414 14.6067 156.023 13.9669 154.615C13.0471 152.695 12.2562 150.715 11.5997 148.689C11.7436 148.689 15.5984 147.793 16.966 146.714C18.1896 145.77 19.4852 144.242 19.4772 142.611C19.4874 142.227 19.4168 141.846 19.27 141.492C19.1233 141.137 18.9036 140.818 18.6253 140.554C18.347 140.29 18.0163 140.087 17.6546 139.96C17.293 139.832 16.9085 139.781 16.5261 139.812C14.2229 140.06 12.2315 143.715 11.8156 145.738C11.8156 145.866 11.6397 147.497 11.5917 148.273H11.4557C10.8988 146.265 10.5161 144.213 10.3121 142.139C10.1841 140.995 10.1282 139.892 10.0962 138.812C10.8239 138.724 14.1429 138.284 15.5184 137.453C16.894 136.621 18.2936 135.269 18.4615 133.646C18.5133 133.266 18.4845 132.879 18.377 132.51C18.2695 132.142 18.0857 131.8 17.8375 131.508C17.5894 131.215 17.2824 130.978 16.9366 130.812C16.5908 130.645 16.2139 130.554 15.8304 130.543C13.5191 130.543 11.1438 133.958 10.504 135.917C10.504 136.021 10.2401 137.149 10.0802 137.972C10.0802 137.485 10.0802 136.981 10.0802 136.517C10.0802 134.773 10.1921 133.174 10.3041 131.758C10.3761 130.959 10.4481 130.223 10.536 129.543C11.1998 129.087 13.871 127.2 14.6947 125.856C15.5185 124.513 16.1503 122.657 15.5504 121.122C15.4223 120.76 15.2195 120.43 14.955 120.152C14.6906 119.875 14.3706 119.656 14.0159 119.51C13.6612 119.364 13.2798 119.295 12.8965 119.307C12.5132 119.319 12.1368 119.411 11.7916 119.578C9.73628 120.642 9.20045 124.769 9.53634 126.776C9.53634 126.952 10.3361 129.655 10.3761 129.631C10.2881 130.287 10.2001 130.983 10.1202 131.75C9.9762 133.166 9.83225 134.765 9.79226 136.549C9.72565 138.44 9.76838 140.333 9.92022 142.219C10.0868 144.328 10.4401 146.418 10.9759 148.465C10.9725 148.489 10.9725 148.513 10.9759 148.537C10.608 147.969 9.53634 146.402 9.44037 146.298C8.0968 144.738 4.56991 142.515 2.44258 143.419C2.09395 143.578 1.78282 143.809 1.5295 144.097C1.27618 144.384 1.08635 144.722 0.972401 145.088C0.858451 145.454 0.822941 145.84 0.868182 146.221C0.913424 146.602 1.0384 146.968 1.23497 147.297C2.03471 148.729 3.89812 149.433 5.42564 149.697C7.1451 149.953 10.76 148.897 11.0239 148.817C11.6178 150.887 12.3498 152.915 13.2152 154.887C13.719 156.039 14.2548 157.182 14.8147 158.326C14.4868 157.838 14.1829 157.414 14.1349 157.358C12.7913 155.799 9.26443 153.575 7.1371 154.479C6.80041 154.642 6.50074 154.872 6.25668 155.155C6.01263 155.438 5.82941 155.768 5.71841 156.125C5.60741 156.482 5.571 156.858 5.61143 157.23C5.65187 157.602 5.7683 157.961 5.95348 158.286C6.75322 159.71 8.61663 160.421 10.1361 160.637C11.6557 160.853 14.7907 160.029 15.6064 159.837L16.2542 161.141C17.3019 163.228 18.3575 165.308 19.3252 167.371C19.6691 168.107 19.981 168.835 20.2929 169.562C20.005 169.131 19.7491 168.763 19.7091 168.723C18.3575 167.163 14.8307 164.948 12.7113 165.844C12.3618 166.003 12.0497 166.234 11.7955 166.522C11.5413 166.811 11.3507 167.149 11.236 167.516C11.1213 167.882 11.0851 168.269 11.1299 168.651C11.1747 169.032 11.2993 169.4 11.4957 169.73C12.2955 171.162 14.1589 171.866 15.6864 172.13C17.2139 172.393 20.037 171.602 21.0047 171.33C21.3086 172.09 21.6045 172.841 21.8604 173.593C22.0284 174.105 22.2203 174.593 22.3483 175.113L22.7801 176.656C23.0201 177.64 23.268 178.656 23.4759 179.623C23.6199 180.295 23.7558 180.943 23.8838 181.591C23.5559 180.863 22.8681 179.447 22.7961 179.335C21.7005 177.584 18.5575 174.857 16.3182 175.425C15.9488 175.529 15.6056 175.71 15.311 175.956C15.0164 176.202 14.7772 176.508 14.6088 176.853C14.4405 177.198 14.3469 177.575 14.3341 177.958C14.3213 178.342 14.3897 178.724 14.5348 179.079C15.0946 180.615 16.846 181.599 18.3176 182.046C19.9171 182.542 23.5319 182.094 23.9798 182.046C24.1957 183.118 24.3956 184.166 24.5636 185.157C25.1714 188.588 25.5393 191.467 25.7712 193.483C25.8192 193.843 25.8512 194.163 25.8832 194.459H18.9334L21.0767 236.309H33.7127L35.856 194.459H29.3781L29.522 194.163C30.4097 192.315 31.6413 189.652 32.9769 186.397C33.3928 185.365 33.8247 184.262 34.2565 183.118C34.6964 183.214 38.2553 183.918 39.9027 183.558C41.4063 183.222 43.2297 182.366 43.9015 180.887C44.0721 180.542 44.1682 180.166 44.1835 179.782C44.1988 179.398 44.133 179.015 43.9904 178.658C43.8478 178.301 43.6316 177.978 43.3558 177.71C43.08 177.443 42.7509 177.236 42.3899 177.104C40.2066 176.368 36.8637 178.855 35.6401 180.519C35.5681 180.615 34.8963 181.767 34.4884 182.494C34.6644 182.03 34.8403 181.583 35.0163 181.095C35.3602 180.143 35.6881 179.183 36.032 178.152L36.4878 176.624C36.6558 176.112 36.7597 175.56 36.9037 175.025C37.1996 173.769 37.4395 172.489 37.6554 171.194C38.4552 171.498 41.4702 172.537 43.0138 172.425C44.5573 172.314 46.4767 171.754 47.3644 170.386C47.5849 170.072 47.7367 169.715 47.8099 169.339C47.8831 168.962 47.8761 168.575 47.7893 168.201C47.7025 167.828 47.5379 167.477 47.3062 167.171C47.0745 166.865 46.7809 166.612 46.4447 166.427C44.3973 165.364 40.7185 167.315 39.2469 168.771C39.151 168.867 38.2233 170.026 37.7194 170.674C37.8474 169.874 37.9753 169.115 38.0713 168.323C38.3512 166.036 38.5672 163.708 38.7991 161.381C38.8631 160.669 38.943 159.965 39.015 159.254C39.3109 159.366 42.8298 160.677 44.5573 160.557C46.0928 160.445 48.0202 159.885 48.9159 158.518C49.1408 158.202 49.2962 157.842 49.3718 157.462C49.4475 157.082 49.4417 156.69 49.3548 156.312C49.2678 155.934 49.1018 155.579 48.8677 155.27C48.6335 154.961 48.3365 154.705 47.9962 154.519C45.9408 153.463 42.262 155.415 40.7985 156.87C40.6865 156.982 39.3509 158.654 39.031 159.094C39.199 157.534 39.3749 155.983 39.6148 154.455C39.9265 152.398 40.37 150.362 40.9424 148.361C41.0784 148.409 44.7492 149.793 46.5406 149.665C48.0762 149.561 50.0035 148.993 50.8913 147.633C51.1165 147.318 51.2723 146.959 51.3486 146.579C51.4248 146.199 51.4197 145.807 51.3335 145.429C51.2474 145.051 51.0822 144.696 50.8488 144.387C50.6154 144.077 50.3192 143.821 49.9795 143.635C47.9242 142.579 44.2454 144.53 42.7818 145.986C42.6859 146.082 41.6622 147.353 41.1823 147.969L41.0704 147.905C41.6955 145.907 42.4985 143.97 43.4696 142.115C43.9894 141.091 44.5493 140.14 45.1171 139.22C45.7729 139.548 48.7879 141.011 50.3954 141.075C52.0029 141.139 53.9063 140.787 54.946 139.524C55.1922 139.236 55.376 138.901 55.4858 138.538C55.5956 138.176 55.6291 137.795 55.584 137.419C55.5389 137.043 55.4162 136.681 55.2238 136.355C55.0314 136.029 54.7734 135.746 54.4661 135.525C52.5387 134.254 48.668 135.789 47.0605 137.069C46.9725 137.141 46.1568 137.948 45.5729 138.548C45.8369 138.14 46.0928 137.708 46.3727 137.325C47.3404 135.869 48.3081 134.597 49.1798 133.478C49.6836 132.846 50.1475 132.278 50.5874 131.758C51.3871 131.758 54.6741 131.646 56.0976 130.959C57.5212 130.271 59.0887 129.079 59.4246 127.488C59.5246 127.112 59.5432 126.719 59.4793 126.335C59.4153 125.951 59.2703 125.586 59.0538 125.263C58.8373 124.939 58.5544 124.666 58.2239 124.461C57.8934 124.256 57.523 124.123 57.1373 124.073ZM31.7133 185.773C30.3218 188.972 29.0502 191.579 28.1305 193.387C27.9465 193.755 27.7786 194.075 27.6266 194.371H27.4667C27.4667 194.019 27.3707 193.635 27.3147 193.203C27.0348 191.164 26.5949 188.268 25.9072 184.814C25.6912 183.726 25.4433 182.566 25.1794 181.375C26.2742 180.943 27.3424 180.446 28.3784 179.887C29.554 181.167 32.585 182.67 32.9769 182.862C32.5291 183.878 32.1132 184.854 31.7133 185.773Z" fill="#263238"/>
<path d="M102.1 195.154C102.1 195.154 102.283 200.705 102.283 203.384C102.136 206.292 100.989 209.061 99.0365 211.221C97.9578 212.362 96.5671 213.161 95.0377 213.517C94.8036 213.532 94.5693 213.487 94.3576 213.386C94.1459 213.284 93.9638 213.13 93.8288 212.938C93.6939 212.746 93.6106 212.523 93.587 212.289C93.5634 212.056 93.6003 211.82 93.6941 211.605C94.078 210.462 94.8458 206.807 94.8458 206.807C94.8458 206.807 94.8458 205.087 95.0377 202.984C95.2495 201.457 95.7002 199.972 96.3733 198.585L96.5653 193.787L102.1 195.154Z" fill="white" stroke="#263238" stroke-linecap="round" stroke-linejoin="round"/>
<path d="M90.8071 112.7C90.8071 112.7 96.7413 116.147 97.693 126.296C98.6447 136.445 101.908 164.74 102.284 170.866C102.659 176.992 105.347 194.77 105.347 194.77C104.094 196.178 102.404 197.122 100.548 197.45C98.4536 197.696 96.3469 197.824 94.2381 197.834C94.2381 197.834 90.9831 131.654 90.9831 130.887C90.9831 130.119 90.8071 112.7 90.8071 112.7Z" fill="white" stroke="#263238" stroke-linecap="round" stroke-linejoin="round"/>
<path d="M52.5554 181.383C52.5554 181.383 52.7154 181.479 53.0113 181.631C57.7488 183.877 62.9705 184.91 68.2065 184.638C77.8034 184.254 90.2075 178.136 90.2075 178.136L90.3995 233.222C90.3995 233.222 65.5273 241.06 53.2912 241.06L48.8926 240.868L52.5554 181.383Z" fill="#263238" stroke="#263238" stroke-linecap="round" stroke-linejoin="round"/>
<path d="M66.1349 102.584C61.6304 105.503 56.9689 108.173 52.1713 110.581C46.4371 113.26 40.8869 122.441 40.6949 126.648C40.503 130.855 53.7068 183.878 53.7068 183.878C53.7068 183.878 66.1349 187.877 77.0355 186.365C87.936 184.854 90.2393 178.144 90.2393 178.144C90.2393 178.144 90.4312 114.444 88.7038 111.965C86.9763 109.486 73.2127 100.856 66.1349 102.584Z" fill="white" stroke="#263238" stroke-linecap="round" stroke-linejoin="round"/>
<path d="M76.6917 106.023C76.6917 106.023 77.4514 113.1 78.795 130.887C80.1386 148.673 80.5145 220.786 80.5145 220.786L80.8983 236.085C80.8983 236.085 90.6552 234.558 93.5183 232.263C94.8911 231.228 96.1727 230.077 97.3491 228.824C97.3491 228.824 96.3894 177.176 96.3894 161.877C96.2956 151.875 95.3996 141.897 93.7103 132.038C93.7103 132.038 93.1345 116.547 91.415 113.484C89.6956 110.421 78.9869 104.687 78.4111 104.687C77.8353 104.687 76.2758 103.535 76.6917 106.023Z" fill="white" stroke="#263238" stroke-linecap="round" stroke-linejoin="round"/>
<path d="M93.9501 156.767L84.3691 157.806V140.74L93.9501 139.7V156.767Z" fill="#FAB915" stroke="#263238" stroke-linecap="round" stroke-linejoin="round"/>
<path d="M90.3512 141.859L87.96 142.011V136.325L90.3512 136.173V141.859Z" fill="white" stroke="#263238" stroke-linecap="round" stroke-linejoin="round"/>
<path d="M80.4825 126.488L85.457 124.577C85.6249 118.283 82.018 108.214 81.2183 106.063C80.3153 105.519 79.365 105.059 78.3792 104.687C77.8034 104.687 76.2759 103.535 76.6597 106.023C76.6597 106.023 77.4195 113.1 78.7631 130.887C79.115 135.581 79.4029 144.059 79.6348 153.999C79.8027 155.687 79.9067 156.711 79.9067 156.711L83.7375 128.975L80.4825 126.488Z" fill="white" stroke="#263238" stroke-linecap="round" stroke-linejoin="round"/>
<path d="M81.4423 56.4863C81.4423 56.4863 70.7257 52.4875 63.0481 54.191C55.3705 55.8944 50.804 60.309 46.5973 67.5787C42.3907 74.8484 39.5516 90.9154 39.9034 95.9058C40.2553 100.896 40.0954 103.359 41.239 103.551C42.637 103.688 44.0411 103.752 45.4457 103.743C45.4457 103.743 45.6376 104.703 47.741 104.703C49.8443 104.703 50.4201 103.551 50.4201 103.551C51.1794 104.148 52.1371 104.434 53.0993 104.351C54.1214 104.126 55.0144 103.508 55.5865 102.632C56.291 102.651 56.9935 102.715 57.6898 102.824C58.5595 102.909 59.4331 102.706 60.177 102.248C61.0099 102.646 61.9449 102.78 62.8562 102.632C64.5756 102.44 65.3434 100.528 65.3434 100.528C67.155 101.066 69.0091 101.449 70.8856 101.672C71.8342 101.65 72.7594 101.374 73.5648 100.872C73.5648 100.872 76.2439 101.064 77.5635 101.064C78.5436 101.02 79.5115 100.829 80.4346 100.496C80.4346 100.496 86.1688 101.448 87.7043 100.496C88.6291 99.9138 89.4665 99.2029 90.1915 98.385C90.6097 98.6111 91.0835 98.7138 91.5578 98.6812C92.032 98.6487 92.4873 98.4822 92.8707 98.201L94.3982 97.2414C95.4171 97.2979 96.4263 97.0168 97.2693 96.4416C97.6924 96.2134 98.053 95.8847 98.3193 95.4845C98.5857 95.0843 98.7496 94.6248 98.7968 94.1463C98.7968 94.1463 101.284 93.5785 101.86 92.6188C102.188 92.1012 102.383 91.5106 102.428 90.8994C102.428 90.8994 103.579 89.7477 103.579 88.988V87.1086C103.579 87.1086 98.6049 85.581 95.166 76.4C91.727 67.2189 94.3662 62.2444 90.5754 58.2297C86.7846 54.215 81.4423 56.4863 81.4423 56.4863Z" fill="#263238" stroke="#263238" stroke-linecap="round" stroke-linejoin="round"/>
<path d="M64.2236 89.5718C64.2236 89.5718 64.4156 106.982 64.7995 111.165C65.1833 115.348 71.3014 126.656 73.5967 125.704C75.8919 124.753 79.3308 98.161 79.3308 98.161L68.0464 89.7397C68.0464 89.7397 65.3753 87.4684 64.2236 89.5718Z" fill="white" stroke="#263238" stroke-linecap="round" stroke-linejoin="round"/>
<path d="M78.7628 65.2834C78.7628 65.2834 71.877 74.2086 68.814 78.0314C65.7509 81.8542 58.6172 87.2125 58.6172 87.2125C58.6172 87.2125 59.8888 91.0433 61.4163 91.803C62.367 92.2642 63.4304 92.4419 64.4793 92.3149C64.4793 92.3149 73.9164 99.7125 77.2273 101.752C80.5383 103.791 86.4084 102.008 87.688 99.4566C88.9676 96.9054 90.4791 86.0928 90.4791 83.0298C90.4791 79.9668 89.0636 73.6088 87.2801 71.0336C85.4967 68.4584 78.7628 65.2834 78.7628 65.2834Z" fill="white" stroke="#263238" stroke-linecap="round" stroke-linejoin="round"/>
<path d="M64.4796 92.3149C64.4796 92.3149 73.9166 99.7125 77.2275 101.752C80.5385 103.791 86.4086 102.008 87.6882 99.4566C88.9678 96.9054 90.4793 86.0929 90.4793 83.0298C90.4793 82.542 90.4393 81.9662 90.3754 81.3344C89.3357 81.3344 86.8805 81.2224 83.9374 81.2224C80.0426 81.2224 76.4198 82.3341 71.1415 84.0055C68.1415 85.0073 64.9587 85.3403 61.8164 84.9812C62.8513 85.6857 64.0486 86.115 65.2953 86.2288C66.9668 86.2288 67.2467 87.6284 66.8308 89.5718C66.6689 90.1757 66.3736 90.7356 65.9667 91.2103C65.5598 91.685 65.0516 92.0625 64.4796 92.3149Z" fill="#FAB915" stroke="#263238" stroke-linecap="round" stroke-linejoin="round"/>
<path d="M78.371 78.9912C78.371 78.9912 75.308 77.1837 73.0767 79.9668" stroke="#263238" stroke-linecap="round" stroke-linejoin="round"/>
<path d="M85.0488 78.5753C85.0488 78.5753 86.5843 76.4879 88.9516 78.2954" stroke="#263238" stroke-linecap="round" stroke-linejoin="round"/>
<path d="M84.3532 75.3762C84.3532 75.3762 82.4098 77.3196 84.2173 80.6626" stroke="#263238" stroke-linecap="round" stroke-linejoin="round"/>
<path d="M84.7769 73.9768C84.7769 73.9768 86.1684 72.1693 88.6716 74.9524" stroke="#263238" stroke-width="2" stroke-linecap="round" stroke-linejoin="round"/>
<path d="M78.9231 74.5366C78.9231 74.5366 75.3083 71.7534 71.9653 76.344" stroke="#263238" stroke-width="2" stroke-linecap="round" stroke-linejoin="round"/>
<path d="M64.2235 103.903C64.0731 112.106 64.7132 120.304 66.1349 128.383C68.4302 140.244 71.9011 190.884 71.9011 190.884V237.533C71.9011 237.533 71.1973 247.706 56.466 252.272C47.6688 254.983 36.8722 250.201 36.8722 250.201C36.8722 250.201 37.2561 170.85 37.2561 169.131C37.2561 167.411 36.1045 132.022 36.6803 127.432C37.2561 122.841 37.0641 120.93 38.7836 118.635C40.5031 116.339 56.57 107.35 56.57 107.35L64.2235 103.903Z" fill="white" stroke="#263238" stroke-linecap="round" stroke-linejoin="round"/>
<path d="M64.2237 103.903C64.2237 103.903 56.954 106.007 56.5702 107.35C56.1863 108.694 56.1943 120.738 57.146 124.369C57.6597 126.189 58.0445 128.044 58.2976 129.919L63.6479 128.575L58.6735 134.318C58.6735 134.318 60.7848 134.893 62.6722 139.668C64.5596 144.442 66.8789 156.886 66.8789 156.886L69.766 165.972L67.2628 134.701C67.2628 134.701 66.687 123.417 65.9192 119.778C65.1514 116.139 63.6479 104.303 64.2237 103.903Z" fill="white" stroke="#263238" stroke-linecap="round" stroke-linejoin="round"/>
<path d="M85.4889 121.498C85.4889 121.498 89.3117 110.405 90.4633 108.494C91.6149 106.582 94.2861 103.695 95.6217 101.8C96.9572 99.9045 97.5411 102.376 97.5411 102.376C97.5411 102.376 97.1572 105.239 96.5814 105.815C95.9335 106.657 95.3583 107.554 94.8619 108.494C94.8619 108.494 99.4364 108.686 100.972 108.302C101.523 108.205 102.09 108.278 102.598 108.511C103.107 108.743 103.533 109.125 103.819 109.605C104.739 111.253 103.595 111.405 102.867 112.532C101.42 114.78 102.867 117.883 101.172 119.97C99.6444 121.882 96.3734 122.073 94.478 122.457C93.2485 122.711 92.0338 123.031 90.8392 123.417L89.4876 126.488L84.5132 123.809L85.4889 121.498Z" fill="white" stroke="#263238" stroke-linecap="round" stroke-linejoin="round"/>
<path d="M50.3 127.256L59.2892 150.968L85.4889 121.498L91.7989 127.24C91.7989 127.24 72.477 158.99 68.8462 163.58C65.2153 168.171 61.0007 173.721 57.1779 173.905C53.3551 174.089 51.8196 169.906 49.9082 167.211C47.9968 164.516 38.4318 143.691 38.0479 141.395C37.664 139.1 37.0962 137.397 38.4318 135.077" fill="white"/>
<path d="M50.3 127.256L59.2892 150.968L85.4889 121.498L91.7989 127.24C91.7989 127.24 72.477 158.99 68.8462 163.58C65.2153 168.171 61.0007 173.721 57.1779 173.905C53.3551 174.089 51.8196 169.906 49.9082 167.211C47.9968 164.516 38.4318 143.691 38.0479 141.395C37.664 139.1 37.0962 137.397 38.4318 135.077" stroke="#263238" stroke-linecap="round" stroke-linejoin="round"/>
<path d="M59.2493 150.968C59.2493 150.968 54.0829 155.943 53.707 159.198" stroke="#263238" stroke-linecap="round" stroke-linejoin="round"/>
<path d="M55.8103 151.928C53.7834 152.965 52.1659 154.656 51.2197 156.727" stroke="#263238" stroke-linecap="round" stroke-linejoin="round"/>
<path d="M109.305 217.947V47.9449H112.64V217.947" fill="#263238"/>
<path d="M109.305 217.947V47.9449H112.64V217.947" stroke="#263238" stroke-linecap="round" stroke-linejoin="round"/>
<path d="M101.948 50.936C102.133 50.9596 102.313 51.0198 102.475 51.1132C102.637 51.2066 102.78 51.3314 102.893 51.4801C103.007 51.6289 103.09 51.7988 103.138 51.98C103.186 52.1611 103.197 52.3499 103.171 52.5355C102.971 53.967 99.2925 54.7827 98.4687 51.7357C97.645 48.6887 99.7003 47.8569 99.7003 47.8569H122.805C122.805 47.8569 120.766 51.1279 121.206 52.5594C121.276 52.8833 121.44 53.1794 121.677 53.4115C121.914 53.6436 122.213 53.8016 122.538 53.8662C122.863 53.9307 123.2 53.8989 123.508 53.7748C123.815 53.6506 124.079 53.4395 124.269 53.1672C125.292 51.9436 123.661 51.1279 123.661 51.1279" stroke="#263238" stroke-linecap="round" stroke-linejoin="round"/>
<path d="M275.397 88.6841L132.65 75.3123V55.0067L275.397 68.3705V88.6841Z" fill="white" stroke="#263238" stroke-linecap="round" stroke-linejoin="round"/>
<path d="M213.568 79.8628L182.658 76.9597V65.4434L213.568 68.3384V79.8628Z" fill="#A6A6A6" stroke="#263238" stroke-linecap="round" stroke-linejoin="round"/>
<path d="M145.222 70.5778C145.21 69.958 144.973 69.3638 144.555 68.9061C144.137 68.4484 143.566 68.1585 142.95 68.0906C142.661 68.0549 142.367 68.082 142.089 68.17C141.811 68.258 141.555 68.4049 141.338 68.6007C141.122 68.7965 140.951 69.0366 140.835 69.3046C140.72 69.5726 140.664 69.8623 140.671 70.1539C140.683 70.7737 140.92 71.3679 141.338 71.8256C141.756 72.2833 142.326 72.5732 142.942 72.6411C143.232 72.6755 143.525 72.6474 143.802 72.5589C144.08 72.4703 144.335 72.3234 144.551 72.1279C144.767 71.9323 144.939 71.6928 145.054 71.4255C145.17 71.1581 145.227 70.869 145.222 70.5778V70.5778Z" stroke="#263238" stroke-linecap="round" stroke-linejoin="round"/>
<path d="M153.411 71.3455C153.397 70.725 153.158 70.1307 152.739 69.6732C152.32 69.2156 151.749 68.926 151.132 68.8583C150.843 68.8238 150.55 68.8519 150.273 68.9405C149.996 69.0291 149.741 69.1762 149.525 69.3718C149.31 69.5674 149.139 69.8071 149.024 70.0745C148.91 70.3418 148.854 70.6307 148.86 70.9216C148.871 71.541 149.107 72.1352 149.526 72.5919C149.944 73.0487 150.516 73.3365 151.132 73.4009C151.421 73.4364 151.714 73.4095 151.991 73.3219C152.269 73.2344 152.524 73.0882 152.74 72.8933C152.956 72.6984 153.128 72.4593 153.244 72.1923C153.36 71.9253 153.417 71.6365 153.411 71.3455V71.3455Z" stroke="#263238" stroke-linecap="round" stroke-linejoin="round"/>
<path d="M161.592 72.1133C161.581 71.4935 161.344 70.8993 160.926 70.4416C160.508 69.9839 159.937 69.694 159.321 69.6261C159.032 69.5905 158.739 69.6174 158.462 69.705C158.184 69.7925 157.929 69.9387 157.713 70.1336C157.496 70.3285 157.325 70.5676 157.209 70.8346C157.093 71.1017 157.036 71.3904 157.042 71.6814C157.054 72.3024 157.292 72.8976 157.712 73.3555C158.131 73.8135 158.704 74.1026 159.321 74.1686C159.609 74.203 159.902 74.1751 160.178 74.087C160.455 73.9989 160.709 73.8525 160.924 73.6577C161.14 73.463 161.311 73.2243 161.426 72.9579C161.541 72.6915 161.598 72.4035 161.592 72.1133V72.1133Z" stroke="#263238" stroke-linecap="round" stroke-linejoin="round"/>
<path d="M169.774 72.881C169.764 72.2607 169.527 71.6656 169.109 71.2075C168.691 70.7494 168.119 70.46 167.503 70.3938C167.214 70.3594 166.922 70.3873 166.646 70.4754C166.369 70.5635 166.115 70.7099 165.899 70.9047C165.684 71.0994 165.513 71.3381 165.398 71.6045C165.283 71.8709 165.226 72.1589 165.231 72.4491C165.243 73.0689 165.48 73.6631 165.898 74.1208C166.316 74.5786 166.886 74.8684 167.503 74.9363C167.791 74.9707 168.083 74.9428 168.36 74.8547C168.636 74.7666 168.891 74.6202 169.106 74.4254C169.321 74.2307 169.492 73.9921 169.607 73.7256C169.723 73.4592 169.779 73.1712 169.774 72.881Z" stroke="#263238" stroke-linecap="round" stroke-linejoin="round"/>
<path d="M224.181 69.938V73.2729" stroke="#263238" stroke-linecap="round" stroke-linejoin="round"/>
<path d="M229.939 70.4818V73.8168" stroke="#263238" stroke-linecap="round" stroke-linejoin="round"/>
<path d="M224.181 76.3359V79.6629" stroke="#263238" stroke-linecap="round" stroke-linejoin="round"/>
<path d="M229.939 76.8717V80.2066" stroke="#263238" stroke-linecap="round" stroke-linejoin="round"/>
<path d="M233.922 70.2578V81.6222" stroke="#263238" stroke-linecap="round" stroke-linejoin="round"/>
<path d="M238.576 71.2896V74.6245" stroke="#263238" stroke-linecap="round" stroke-linejoin="round"/>
<path d="M244.334 71.8253V75.1603" stroke="#263238" stroke-linecap="round" stroke-linejoin="round"/>
<path d="M238.576 77.6796V81.0145" stroke="#263238" stroke-linecap="round" stroke-linejoin="round"/>
<path d="M244.334 78.2233V81.5582" stroke="#263238" stroke-linecap="round" stroke-linejoin="round"/>
<path d="M248.317 71.6094V82.9738" stroke="#263238" stroke-linecap="round" stroke-linejoin="round"/>
<path d="M252.972 72.6411V75.9681" stroke="#263238" stroke-linecap="round" stroke-linejoin="round"/>
<path d="M258.73 73.1769V76.5118" stroke="#263238" stroke-linecap="round" stroke-linejoin="round"/>
<path d="M252.972 79.0311V82.3661" stroke="#263238" stroke-linecap="round" stroke-linejoin="round"/>
<path d="M258.73 79.5669V82.9018" stroke="#263238" stroke-linecap="round" stroke-linejoin="round"/>
<path d="M262.712 72.9609V84.3173" stroke="#263238" stroke-linecap="round" stroke-linejoin="round"/>
<path d="M93.0461 210.389L91.8545 185.909L103.979 180.439L104.93 204.927L93.0461 210.389Z" fill="white" stroke="#263238" stroke-linecap="round" stroke-linejoin="round"/>
<path d="M82.5856 185.909C66.4227 194.706 60.6806 200.729 59.289 211.101C58.5772 216.42 59.289 238.677 59.289 238.677L63.2877 235.829L63.5276 230.119L133.178 190.428L133.418 166.435C133.418 166.435 98.7485 177.112 82.5856 185.909ZM131.074 188.756L64.0475 225.841C64.0475 225.841 63.3117 214.508 64.7593 210.158C66.7666 204.087 68.0222 200.521 76.8354 195.274C81.1781 192.691 97.085 184.478 108.257 179.727C119.43 174.977 131.314 170.93 131.314 170.93L131.074 188.756Z" fill="white" stroke="#263238" stroke-linecap="round" stroke-linejoin="round"/>
<path d="M258.426 142.643C255.915 139.844 244.118 138.268 244.118 138.268L165.543 125.232C165.543 125.232 157.954 126.128 156.322 128.951C154.995 131.495 153.851 134.13 152.899 136.837H153.067L127.339 205.703L235.041 239.596C235.041 239.596 258.666 165.62 259.466 162.157C260.265 158.694 261.089 144.242 258.426 142.643Z" fill="#4C4C4C" stroke="#263238" stroke-linecap="round" stroke-linejoin="round"/>
<path d="M256.098 140.955C258.905 142.307 258.77 146.026 257.97 149.489C257.17 152.952 228.907 235.062 228.907 235.062L121.205 201.208L147.597 130.559C147.597 130.559 148.932 125.76 152.667 124.433L153.363 124.193C156.552 123.219 159.93 123.03 163.208 123.641C179.419 126.528 251.676 138.828 256.098 140.955Z" fill="#263238" stroke="#263238" stroke-linecap="round" stroke-linejoin="round"/>
<path d="M221.862 142.027C221.862 142.027 237.856 147.09 241.983 148.425C246.11 149.761 245.182 152.152 244.542 154.823C243.903 157.494 220.55 205.207 218.95 206.271C217.351 207.334 216.719 208.134 214.152 208.134C211.585 208.134 147.069 192.939 135.249 191.339C123.429 189.74 162.72 128.431 162.72 128.431L221.862 142.027Z" fill="white" stroke="#263238" stroke-linecap="round" stroke-linejoin="round"/>
<path d="M151.596 117.499C151.596 117.499 148.133 121.762 146.533 135.357C144.934 148.953 140.135 167.619 140.135 169.746C140.135 171.874 143.87 172.418 154.803 177.744C165.735 183.07 205.715 189.212 209.713 189.74C213.712 190.268 220.11 192.939 221.709 191.34C223.309 189.74 231.306 169.219 233.442 155.623C235.577 142.027 237.976 131.095 237.976 127.36C237.976 123.625 217.711 119.362 199.053 115.364C180.395 111.365 155.602 110.837 154.531 111.101C153.459 111.365 151.596 117.499 151.596 117.499Z" fill="white" stroke="#263238" stroke-linecap="round" stroke-linejoin="round"/>
<path d="M186.88 152.952C186.88 152.952 192.367 152.384 195.957 152.952" stroke="#263238" stroke-linecap="round" stroke-linejoin="round"/>
<path d="M200.125 130.439C203.567 128.991 207.196 128.035 210.905 127.6" stroke="#263238" stroke-linecap="round" stroke-linejoin="round"/>
<path d="M170.982 155.983C170.982 155.983 164.928 150.688 160.585 149.361" stroke="#263238" stroke-linecap="round" stroke-linejoin="round"/>
<path d="M130.371 119.778C130.371 119.778 126.244 130.975 125.092 134.781C123.941 138.588 123.605 153.583 123.605 156.878C123.704 159.805 123.971 162.724 124.405 165.62L125.396 178.807C125.396 178.807 114.016 178.648 112.04 178.008C110.065 177.368 110.393 173.065 110.393 163.828C110.393 154.591 115.191 138.236 116.159 134.31C117.127 130.383 118.638 123.593 118.638 123.593C118.638 123.593 116.495 116.995 116.495 114.692C116.495 112.388 123.077 110.541 126.276 110.045C129.475 109.549 131.554 110.213 131.874 113.012C132.194 115.811 130.371 119.778 130.371 119.778Z" fill="white" stroke="#263238" stroke-linecap="round" stroke-linejoin="round"/>
<path d="M119.486 108.398C119.486 108.398 116.679 108.894 116.519 109.885C116.359 110.877 117.67 115.819 118.822 116.147C119.072 116.23 119.336 116.256 119.597 116.223C119.858 116.19 120.108 116.1 120.33 115.958C120.551 115.816 120.738 115.627 120.877 115.404C121.016 115.18 121.104 114.929 121.133 114.668C121.133 113.676 119.486 108.398 119.486 108.398Z" fill="white" stroke="#263238" stroke-linecap="round" stroke-linejoin="round"/>
<path d="M122.949 106.422C122.949 106.422 120.142 106.255 119.486 107.742C118.83 109.23 119.814 113.676 121.133 114.668C122.453 115.66 123.605 113.868 123.605 113.868L122.949 106.422Z" fill="white" stroke="#263238" stroke-linecap="round" stroke-linejoin="round"/>
<path d="M126.74 105.927C126.74 105.927 123.109 105.263 122.949 106.422C122.789 107.582 123.277 113.18 123.605 113.844C123.933 114.508 126.244 113.844 126.74 113.18C127.235 112.516 126.74 105.927 126.74 105.927Z" fill="white" stroke="#263238" stroke-linecap="round" stroke-linejoin="round"/>
<path d="M126.74 105.927C126.74 105.927 126.572 111.861 127.236 112.525C127.899 113.188 130.371 113.844 130.858 112.684C131.346 111.525 131.522 107.246 131.354 106.422C131.186 105.599 128.883 104.439 126.74 105.927Z" fill="white" stroke="#263238" stroke-linecap="round" stroke-linejoin="round"/>
<path d="M128.227 123.241C128.227 123.241 132.674 118.954 133.338 116.971C134.001 114.988 133.17 110.573 132.674 109.549C132.178 108.526 126.412 109.062 125.42 109.39C124.428 109.717 123.605 110.541 124.428 111.205C125.252 111.869 128.555 111.861 128.555 111.861C128.555 111.861 125.748 114.996 125.916 117.795" fill="white"/>
<path d="M128.227 123.241C128.227 123.241 132.674 118.954 133.338 116.971C134.001 114.988 133.17 110.573 132.674 109.549C132.178 108.526 126.412 109.062 125.42 109.39C124.428 109.717 123.605 110.541 124.428 111.205C125.252 111.869 128.555 111.861 128.555 111.861C128.555 111.861 125.748 114.996 125.916 117.795" stroke="#263238" stroke-linecap="round" stroke-linejoin="round"/>
<path d="M170.934 146.29C170.934 146.29 169.774 156.686 169.774 157.174C169.774 157.662 171.261 158.334 163.016 156.191C154.771 154.047 152.299 152.56 150.316 153.551C148.333 154.543 123.772 165.092 123.772 165.092V182.734C123.772 182.734 133.833 180.759 136.632 180.095C139.432 179.431 144.382 178.776 144.382 178.776L137.624 200.049C146.424 198.941 155.347 199.333 164.016 201.208C177.539 204.335 196.501 211.757 196.501 211.757C196.501 211.757 204.907 170.53 204.907 169.37C204.907 168.211 185.457 159.885 185.457 159.885L187.936 150.289C187.936 150.289 178.851 150.448 170.934 146.29Z" fill="#FAB915" stroke="#263238" stroke-linecap="round" stroke-linejoin="round"/>
<path d="M185.457 159.886L187.936 150.289C187.936 150.289 178.867 150.457 170.95 146.33C170.95 146.33 169.79 156.727 169.79 157.214C169.79 157.702 170.854 158.174 166.183 157.03C166.311 159.062 167.047 170.906 167.647 174.369C167.913 176.377 168.647 178.295 169.79 179.967V184.086L172.101 180.463C172.101 180.463 179.691 176.336 183.642 170.066C185.46 167.219 186.954 164.177 188.096 160.997L185.457 159.886Z" fill="white" stroke="#263238" stroke-linecap="round" stroke-linejoin="round"/>
<path d="M167.455 161.229L172.621 163.221L173.421 165.012" stroke="#263238" stroke-linecap="round" stroke-linejoin="round"/>
<path d="M177.004 166.004C177.166 165.677 177.423 165.408 177.741 165.23C178.06 165.053 178.425 164.977 178.787 165.012C179.987 165.212 184.761 166.203 184.761 166.203" stroke="#263238" stroke-linecap="round" stroke-linejoin="round"/>
<path d="M147.677 166.115L144.382 178.807L145.701 165.124" stroke="#263238" stroke-linecap="round" stroke-linejoin="round"/>
<path d="M169.462 130.335C169.462 130.335 169.726 127.52 167.918 127.896C166.111 128.272 166.919 134.19 167.455 135.989C167.99 137.789 169.782 136.789 169.782 136.789L169.462 130.335Z" stroke="#263238" stroke-linecap="round" stroke-linejoin="round"/>
<path d="M167.671 133.182C167.671 133.182 166.735 142.107 167.631 145.226C168.526 148.345 172.301 154.023 176.132 155.575C179.963 157.126 186.777 152.512 189.368 150.632C191.959 148.753 193.031 145.098 193.031 145.098C193.031 145.098 197.589 142.699 199.317 139.172C201.044 135.645 199.317 133.726 199.317 133.726C198.865 131.727 198.76 129.666 199.005 127.632C199.421 124.321 200.1 118.371 193.135 116.891C186.169 115.412 179.275 116.571 176.028 118.787C172.781 121.002 169.206 123.081 169.07 124.385C168.934 125.688 167.671 133.182 167.671 133.182Z" fill="white" stroke="#263238" stroke-linecap="round" stroke-linejoin="round"/>
<path d="M177.94 108.022C176.144 108.521 174.395 109.171 172.709 109.965C171.246 110.829 168.846 113.684 168.846 113.684L173.765 112.58C173.765 112.58 168.742 116.331 167.319 118.675C166.448 120.104 165.712 121.612 165.12 123.177L167.391 121.642C167.391 121.642 167.279 123.785 167.295 124.449L167.375 127.744L167.671 133.182L169.478 126.208L179.555 120.026L179.603 121.842C179.603 121.842 179.267 121.682 184.21 121.562C187.343 121.451 190.443 120.875 193.407 119.85L191.495 122.705L193.791 122.153C193.791 122.153 192.735 126.304 193.791 128.919C194.846 131.534 195.854 133.494 195.854 133.494L195.126 137.637L198.013 134.102L199.317 133.734C199.317 133.734 201.948 126.584 202.692 123.265C203.435 119.946 202.204 116.515 200.98 113.74C199.757 110.965 194.022 105.663 187.241 105.167C182.851 104.921 178.452 105.463 174.253 106.766L177.94 108.022Z" fill="#263238" stroke="#263238" stroke-linecap="round" stroke-linejoin="round"/>
<path d="M171.917 131.59C171.917 131.59 175.172 129.863 177.204 131.958" stroke="#263238" stroke-linecap="round" stroke-linejoin="round"/>
<path d="M184.009 133.606C184.009 133.606 187.272 132.206 189.152 134.805" stroke="#263238" stroke-linecap="round" stroke-linejoin="round"/>
<path d="M179.379 133.062C179.379 133.062 177.331 137.061 177.707 139.036C178.083 141.011 180.85 139.46 180.85 139.46" stroke="#263238" stroke-linecap="round" stroke-linejoin="round"/>
<path d="M174.645 141.915C174.645 141.915 177.364 145.114 183.09 143.363" stroke="#263238" stroke-linecap="round" stroke-linejoin="round"/>
<path d="M185.009 127.312C185.009 127.312 188.128 126.576 190.36 130.151" stroke="#263238" stroke-width="2" stroke-linecap="round" stroke-linejoin="round"/>
<path d="M178.539 125.824C178.539 125.824 173.876 123.961 171.789 126.32" stroke="#263238" stroke-width="2" stroke-linecap="round" stroke-linejoin="round"/>
<path d="M22.3086 259.318C22.3086 259.318 113.744 200.673 115.079 200.137C122.554 197.227 130.335 195.172 138.272 194.011C149.996 192.411 173.461 196.41 187.056 203.608C200.652 210.805 224.645 226.528 229.179 230.527C233.714 234.526 234.505 243.323 234.505 243.323L234.242 255.855" fill="white"/>
<path d="M22.3086 259.318C22.3086 259.318 113.744 200.673 115.079 200.137C122.554 197.227 130.335 195.172 138.272 194.011C149.996 192.411 173.461 196.41 187.056 203.608C200.652 210.805 224.645 226.528 229.179 230.527C233.714 234.526 234.505 243.323 234.505 243.323L234.242 255.855" stroke="#263238" stroke-linecap="round" stroke-linejoin="round"/>
<path d="M96.7729 211.917C96.7729 211.917 123.109 203.72 165.991 217.251C208.873 230.783 220.094 250.233 220.75 252.872C221.406 255.511 221.086 269.371 221.086 269.371" stroke="#263238" stroke-linecap="round" stroke-linejoin="round"/>
<path d="M198.309 206.183L199.109 210.31L169.118 227.784L155.595 227.952C155.595 227.952 148.669 230.919 149.492 231.583C150.316 232.247 153.947 230.919 153.947 230.919L157.082 230.423L151.148 233.23L145.702 238.029C145.702 238.029 145.206 238.829 146.03 238.829C146.853 238.829 151.308 235.861 151.308 235.861L154.611 234.542L147.349 239.98C147.349 239.98 147.189 241.132 148.149 241.132C149.109 241.132 153.099 238.165 153.099 238.165L157.386 236.517C157.386 236.517 152.108 240.972 151.612 241.468C151.116 241.964 150.628 242.947 151.948 242.947C153.267 242.947 157.058 239.484 157.058 239.484L160.025 237.669L156.234 241.796C156.234 241.796 156.89 242.787 158.706 241.3C160.521 239.812 164.808 236.349 164.808 236.349C166.488 235.973 168.14 235.479 169.75 234.87C170.55 234.374 174.373 232.559 174.373 232.559C174.373 232.559 208.53 219.867 210.177 219.067C211.825 218.267 214.136 215.116 214.136 213.469C214.136 211.821 211.849 204.208 211.849 204.208L198.309 206.183Z" fill="white" stroke="#263238" stroke-linecap="round" stroke-linejoin="round"/>
<path d="M192.679 191.659L189.784 183.878" stroke="#263238" stroke-linecap="round" stroke-linejoin="round"/>
<path d="M192.535 182.606L193.358 208.99L213.48 205.359L204.899 169.411" fill="#FAB915"/>
<path d="M192.535 182.606L193.358 208.99L213.48 205.359L204.899 169.411" stroke="#263238" stroke-linecap="round" stroke-linejoin="round"/>
<path d="M225.181 225.729L225.445 253.992L234.778 241.46V215.868L225.181 225.729Z" fill="white" stroke="#263238" stroke-linecap="round" stroke-linejoin="round"/>
<path d="M247.837 208.134C245.174 200.673 238.504 202.008 234.777 205.735C231.05 209.462 209.713 234.798 207.85 242.259C205.986 249.721 206.25 280.111 206.25 280.111L207.05 288.645L212.912 281.447L213.184 273.985L248.373 231.327L249.173 242.523L252.635 236.661C252.635 236.661 250.5 215.604 247.837 208.134ZM212.912 265.452C212.912 265.452 213.448 250.521 214.248 246.258C215.263 240.82 218.566 236.221 221.925 232.127C226.14 226.984 230.419 221.906 234.889 216.987C235.689 216.188 242.847 208.142 243.574 210.006C245.438 214.804 247.301 224.401 247.301 224.401L212.912 265.452Z" fill="white" stroke="#263238" stroke-linecap="round" stroke-linejoin="round"/>
<path d="M261.185 201.248L243.59 221.514L288.912 230.575L306.506 210.318L261.185 201.248Z" fill="white" stroke="#263238" stroke-linecap="round" stroke-linejoin="round"/>
<path d="M242.527 263.101L243.591 221.514L288.912 230.575V272.914" fill="#9C9C9C"/>
<path d="M242.527 263.101L243.591 221.514L288.912 230.575V272.914" stroke="#263238" stroke-linecap="round" stroke-linejoin="round"/>
<path d="M306.507 210.318V252.432" stroke="#263238" stroke-linecap="round" stroke-linejoin="round"/>
<path d="M271.622 190.972L271.814 206.951L266.871 212.597L283.626 216.38L288.216 210.382V195.202L271.622 190.972Z" fill="#858585" stroke="#263238" stroke-linecap="round" stroke-linejoin="round"/>
<path d="M271.813 206.951L288.216 210.382" stroke="#263238" stroke-linecap="round" stroke-linejoin="round"/>
<path d="M312.233 203.16L310.233 205.287L249.988 134.933L251.988 133.558L312.233 146.33V203.16Z" fill="#263238" stroke="#263238" stroke-linecap="round" stroke-linejoin="round"/>
<path d="M310.233 205.287L249.988 192.515V134.933L310.233 147.705V205.287Z" fill="#263238" stroke="#263238" stroke-linecap="round" stroke-linejoin="round"/>
<path d="M304.659 198.769L255.562 188.365V141.451L304.659 151.856V198.769Z" fill="white" stroke="#263238" stroke-linecap="round" stroke-linejoin="round"/>
<path d="M255.562 188.365L304.659 151.856" stroke="#263238" stroke-linecap="round" stroke-linejoin="round"/>
<path d="M246.206 226.976V236.501L285.745 244.979V235.094L246.206 226.976Z" fill="white" stroke="#263238" stroke-linecap="round" stroke-linejoin="round"/>
<path d="M246.206 241.444V250.977L285.745 259.446V249.561L246.206 241.444Z" fill="white" stroke="#263238" stroke-linecap="round" stroke-linejoin="round"/>
</svg>
