<svg width="313" height="279" viewBox="0 0 313 279" fill="none" xmlns="http://www.w3.org/2000/svg">
<g clip-path="url(#clip0_0_580)">
<path d="M11.3696 103.987C11.3696 103.987 0.742854 150.859 31.4552 191.944C62.1675 233.03 115.317 249.273 158.093 263.565C200.869 277.857 240.694 261.944 255.447 226.022C270.2 190.1 239.795 170.491 232.81 123.397C225.826 76.3025 231.066 62.7866 199.701 26.7571C168.335 -9.27249 104.421 -8.8422 61.4759 27.6561C18.531 64.1543 11.3696 103.987 11.3696 103.987Z" fill="#FAB915"/>
<path opacity="0.7" d="M11.3696 103.987C11.3696 103.987 0.742854 150.859 31.4552 191.944C62.1675 233.03 115.317 249.273 158.093 263.565C200.869 277.857 240.694 261.944 255.447 226.022C270.2 190.1 239.795 170.491 232.81 123.397C225.826 76.3025 231.066 62.7866 199.701 26.7571C168.335 -9.27249 104.421 -8.8422 61.4759 27.6561C18.531 64.1543 11.3696 103.987 11.3696 103.987Z" fill="white"/>
<path d="M260.933 41.6868C260.933 41.6868 261.702 37.7065 257.222 31.037C252.742 24.3674 249.784 20.4794 249.784 20.4794C249.784 20.4794 245.174 29.1006 249.292 35.6934C252.336 40.3613 255.765 44.7667 259.542 48.8635L260.933 41.6868Z" fill="#FAB915"/>
<path d="M247.97 64.9918C247.97 64.9918 248.739 61.0116 244.259 54.342C239.779 47.6724 236.806 43.7844 236.806 43.7844C236.806 43.7844 232.196 52.4057 236.322 58.9907C239.364 63.662 242.793 68.0701 246.572 72.1685L247.97 64.9918Z" fill="#FAB915"/>
<path d="M259.25 48.4101C259.25 48.4101 260.449 44.5682 267.556 40.7724C274.664 36.9766 279.082 34.9865 279.082 34.9865C279.082 34.9865 279.082 44.7449 272.336 48.6253C267.445 51.3004 262.341 53.5647 257.076 55.3947L259.25 48.4101Z" fill="#FAB915"/>
<path d="M243.729 75.8876C243.729 75.8876 245.327 72.1532 252.788 69.1642C260.249 66.1752 264.883 64.623 264.883 64.623C264.883 64.623 263.83 74.3277 256.738 77.4781C251.596 79.6282 246.284 81.3426 240.855 82.6032L243.729 75.8876Z" fill="#FAB915"/>
<path d="M239.303 108.29C239.303 108.29 240.071 104.302 246.756 99.8381C253.441 95.3738 257.629 92.8612 257.629 92.8612C257.629 92.8612 258.628 102.574 252.358 107.138C247.783 110.32 242.948 113.111 237.905 115.482L239.303 108.29Z" fill="#FAB915"/>
<path d="M237.682 116.089C237.682 116.089 239.019 112.247 235.53 105.017C232.042 97.7865 229.652 93.4912 229.652 93.4912C229.652 93.4912 223.889 101.367 227.001 108.475C229.349 113.528 232.117 118.376 235.277 122.966L237.682 116.089Z" fill="#FAB915"/>
<path d="M227.654 138.196C227.654 138.196 228.423 134.216 235.1 129.744C241.777 125.272 245.98 122.721 245.98 122.721C245.98 122.721 246.979 132.425 240.709 136.997C236.132 140.176 231.298 142.967 226.256 145.342L227.654 138.196Z" fill="#FAB915"/>
<path d="M227.27 159.941C227.27 159.941 227.017 155.892 232.334 149.86C237.651 143.828 241.086 140.393 241.086 140.393C241.086 140.393 244.513 149.53 239.603 155.538C235.981 159.775 232.01 163.7 227.731 167.272L227.27 159.941Z" fill="#FAB915"/>
<path d="M261.632 40.7648C260.541 44.8604 259.225 48.8928 257.69 52.8438C253.257 63.8086 246.311 70.0786 242.092 79.937C237.874 89.7954 241.616 104.295 237.336 117.181C233.056 130.066 226.479 136.39 226.225 145.519C225.972 154.647 229.037 180.027 229.037 180.027" stroke="#263238" stroke-width="0.5" stroke-linecap="round" stroke-linejoin="round"/>
<path d="M258.682 51.0456L265.597 47.611" stroke="#263238" stroke-width="0.5" stroke-linecap="round" stroke-linejoin="round"/>
<path d="M259.996 45.7899L258.359 40.8262" stroke="#263238" stroke-width="0.5" stroke-linecap="round" stroke-linejoin="round"/>
<path d="M242.515 79.5297C242.515 79.5297 248.293 76.7404 254.202 73.9742" stroke="#263238" stroke-width="0.5" stroke-linecap="round" stroke-linejoin="round"/>
<path d="M246.572 72.1685C246.572 72.1685 243.982 63.1247 240.294 56.7471" stroke="#263238" stroke-width="0.5" stroke-linecap="round" stroke-linejoin="round"/>
<path d="M238.396 113.999C242.303 109.266 246.877 105.124 251.974 101.705" stroke="#263238" stroke-width="0.5" stroke-linecap="round" stroke-linejoin="round"/>
<path d="M236.322 119.401C235.494 115.506 234.343 111.687 232.879 107.983C230.789 103.081 230.482 102.435 230.482 102.435" stroke="#263238" stroke-width="0.5" stroke-linecap="round" stroke-linejoin="round"/>
<path d="M226.225 145.519C228.117 142.601 230.231 139.835 232.549 137.243C234.824 134.862 237.291 132.672 239.925 130.696" stroke="#263238" stroke-width="0.5" stroke-linecap="round" stroke-linejoin="round"/>
<path d="M227.731 167.233C228.032 164.153 229.149 161.209 230.966 158.704C233.855 155.054 237.275 150.213 238.65 148.3" stroke="#263238" stroke-width="0.5" stroke-linecap="round" stroke-linejoin="round"/>
<path d="M214 87.7898C214 87.7898 214.054 85.2003 217.75 81.6427C221.446 78.0851 223.813 76.0873 223.813 76.0873C223.813 76.0873 225.495 82.0653 222.053 85.6076C219.531 88.1011 216.804 90.3784 213.9 92.4155L214 87.7898Z" fill="#FAB915"/>
<path d="M218.895 104.033C218.895 104.033 218.956 101.452 222.645 97.8863C226.333 94.321 228.715 92.3309 228.715 92.3309C228.715 92.3309 230.39 98.309 226.955 101.859C224.43 104.35 221.7 106.624 218.795 108.659L218.895 104.033Z" fill="#FAB915"/>
<path d="M214.131 92.1927C214.131 92.1927 213.916 89.6186 210.005 86.3145C206.094 83.0105 203.604 81.151 203.604 81.151C203.604 81.151 202.298 87.2289 205.955 90.5483C208.631 92.8757 211.497 94.9755 214.523 96.826L214.131 92.1927Z" fill="#FAB915"/>
<path d="M220.063 111.379C220.063 111.379 219.571 108.844 215.337 106.001C211.103 103.158 208.422 101.536 208.422 101.536C208.422 101.536 207.769 107.683 211.749 110.634C214.654 112.679 217.726 114.478 220.931 116.013L220.063 111.379Z" fill="#FAB915"/>
<path d="M218.418 132.126C218.418 132.126 218.472 129.544 214.938 125.848C211.403 122.152 209.121 120.039 209.121 120.039C209.121 120.039 207.185 125.94 210.458 129.628C212.874 132.226 215.503 134.616 218.318 136.774L218.418 132.126Z" fill="#FAB915"/>
<path d="M218.372 137.197C218.372 137.197 218.057 134.638 221.215 130.604C224.373 126.57 226.425 124.257 226.425 124.257C226.425 124.257 228.938 129.936 226.041 133.931C223.896 136.755 221.518 139.395 218.933 141.823L218.372 137.197Z" fill="#FAB915"/>
<path d="M221.431 158.727C221.431 158.727 222.199 156.261 226.755 153.909C231.312 151.558 234.14 150.29 234.14 150.29C234.14 150.29 234.07 156.499 229.775 158.927C226.649 160.608 223.387 162.025 220.024 163.161L221.431 158.727Z" fill="#FAB915"/>
<path d="M221.615 152.303C221.615 152.303 221.669 149.722 218.126 146.026C214.584 142.33 212.31 140.217 212.31 140.217C212.31 140.217 210.373 146.118 213.654 149.806C216.07 152.403 218.7 154.794 221.515 156.952L221.615 152.303Z" fill="#FAB915"/>
<path d="M218.902 165.873C218.902 165.873 219.609 163.391 217.127 158.919C214.645 154.447 212.97 151.827 212.97 151.827C212.97 151.827 209.597 157.044 211.841 161.447C213.517 164.575 215.452 167.556 217.627 170.36L218.902 165.873Z" fill="#FAB915"/>
<path d="M213.67 87.1136C213.794 89.8082 214.066 92.4939 214.484 95.1586C215.76 102.574 219.225 107.453 220.516 114.122C221.807 120.792 217.512 129.329 218.426 137.942C219.341 146.556 222.568 151.366 221.5 157.067C220.432 162.769 215.091 178.144 215.091 178.144" stroke="#263238" stroke-width="0.5" stroke-linecap="round" stroke-linejoin="round"/>
<path d="M214.131 93.9062L210.297 90.8326" stroke="#263238" stroke-width="0.5" stroke-linecap="round" stroke-linejoin="round"/>
<path d="M214.023 90.4639L215.714 87.5978" stroke="#263238" stroke-width="0.5" stroke-linecap="round" stroke-linejoin="round"/>
<path d="M220.316 113.807C220.316 113.807 217.112 111.295 213.808 108.774" stroke="#263238" stroke-width="0.5" stroke-linecap="round" stroke-linejoin="round"/>
<path d="M218.795 108.682C220.491 105.572 222.499 102.642 224.788 99.938" stroke="#263238" stroke-width="0.5" stroke-linecap="round" stroke-linejoin="round"/>
<path d="M218.211 135.783C216.424 132.31 214.141 129.116 211.434 126.301" stroke="#263238" stroke-width="0.5" stroke-linecap="round" stroke-linejoin="round"/>
<path d="M218.772 139.441C219.81 137.132 221.039 134.914 222.445 132.809C224.412 130.043 224.689 129.682 224.689 129.682" stroke="#263238" stroke-width="0.5" stroke-linecap="round" stroke-linejoin="round"/>
<path d="M220.47 161.332C222.195 159.891 224.043 158.605 225.995 157.49C227.211 156.917 228.378 156.243 229.483 155.477" stroke="#263238" stroke-width="0.5" stroke-linecap="round" stroke-linejoin="round"/>
<path d="M221.507 157.052C220.728 154.98 219.791 152.971 218.703 151.043C217.609 149.257 216.371 147.563 214.999 145.98" stroke="#263238" stroke-width="0.5" stroke-linecap="round" stroke-linejoin="round"/>
<path d="M217.627 170.36C217.861 168.405 217.566 166.423 216.774 164.621C215.476 161.962 214.008 158.474 213.401 157.114" stroke="#263238" stroke-width="0.5" stroke-linecap="round" stroke-linejoin="round"/>
<path d="M28.3508 141.838C28.3508 141.838 27.1367 138.327 20.5286 135.122C13.9205 131.918 9.77124 130.197 9.77124 130.197C9.77124 130.197 10.1093 139.11 16.364 142.437C20.9112 144.733 25.6431 146.643 30.5099 148.146L28.3508 141.838Z" fill="#FAB915"/>
<path d="M28.8041 166.196C28.8041 166.196 27.5901 162.692 20.982 159.48C14.3739 156.268 10.2246 154.555 10.2246 154.555C10.2246 154.555 10.5627 163.468 16.8173 166.803C21.3657 169.094 26.0974 171.001 30.9633 172.504L28.8041 166.196Z" fill="#FAB915"/>
<path d="M30.1105 147.916C30.1105 147.916 29.2729 144.297 33.184 138.065C37.0951 131.834 39.6615 128.192 39.6615 128.192C39.6615 128.192 44.1104 135.921 40.5835 142.069C37.9511 146.428 34.9566 150.559 31.6319 154.416L30.1105 147.916Z" fill="#FAB915"/>
<path d="M30.4484 176.753C30.4484 176.753 29.9951 173.065 34.5209 167.279C39.0466 161.493 41.9972 158.143 41.9972 158.143C41.9972 158.143 45.6163 166.296 41.4594 172.035C38.3817 176.093 34.9711 179.886 31.2629 183.377L30.4484 176.753Z" fill="#FAB915"/>
<path d="M41.8207 204.384C41.8207 204.384 40.6067 200.881 43.8185 194.272C47.0304 187.664 49.1972 183.769 49.1972 183.769C49.1972 183.769 54.4453 190.984 51.5869 197.469C49.4303 202.081 46.8908 206.505 43.9952 210.693L41.8207 204.384Z" fill="#FAB915"/>
<path d="M44.1259 211.292C44.1259 211.292 43.419 207.65 37.3333 203.532C31.2477 199.413 27.4135 197.139 27.4135 197.139C27.4135 197.139 26.4761 206.006 32.2005 210.201C36.3734 213.126 40.784 215.696 45.386 217.885L44.1259 211.292Z" fill="#FAB915"/>
<path d="M46.3388 233.368C46.3388 233.368 45.1247 229.856 48.3366 223.248C51.5484 216.64 53.7153 212.745 53.7153 212.745C53.7153 212.745 58.9633 219.96 56.1049 226.445C53.9449 231.059 51.403 235.485 48.5056 239.676L46.3388 233.368Z" fill="#FAB915"/>
<path d="M56.0203 250.718C56.0203 250.718 53.9533 247.644 55.3902 240.429C56.8271 233.214 57.9489 228.904 57.9489 228.904C57.9489 228.904 64.8644 234.559 63.7195 241.551C62.8016 246.562 61.4651 251.486 59.7239 256.273L56.0203 250.718Z" fill="#FAB915"/>
<path d="M28.489 140.785C29.5071 144.521 30.3178 148.309 30.9171 152.134C32.4539 162.83 29.826 170.975 31.0247 180.703C32.2234 190.431 41.7821 200.166 44.3562 212.314C46.9302 224.462 44.602 232.492 48.5746 239.807C52.5471 247.122 66.6239 265.794 66.6239 265.794" stroke="#263238" stroke-width="0.5" stroke-linecap="round" stroke-linejoin="round"/>
<path d="M30.8635 150.259L34.7515 144.374" stroke="#263238" stroke-width="0.5" stroke-linecap="round" stroke-linejoin="round"/>
<path d="M29.4957 145.503L25.915 142.33" stroke="#263238" stroke-width="0.5" stroke-linecap="round" stroke-linejoin="round"/>
<path d="M31.1631 180.188C31.1631 180.188 34.4441 175.332 37.848 170.437" stroke="#263238" stroke-width="0.5" stroke-linecap="round" stroke-linejoin="round"/>
<path d="M30.9865 172.504C30.9865 172.504 24.7933 166.519 18.9536 163.199" stroke="#263238" stroke-width="0.5" stroke-linecap="round" stroke-linejoin="round"/>
<path d="M43.7261 209.31C44.6395 203.777 46.353 198.406 48.8128 193.366" stroke="#263238" stroke-width="0.5" stroke-linecap="round" stroke-linejoin="round"/>
<path d="M44.5638 214.527C42.1262 211.832 39.4687 209.344 36.6188 207.089C32.7154 204.169 32.1775 203.801 32.1775 203.801" stroke="#263238" stroke-width="0.5" stroke-linecap="round" stroke-linejoin="round"/>
<path d="M48.5671 239.807C48.7277 236.633 49.1284 233.477 49.7658 230.364C50.4741 227.451 51.4198 224.601 52.5935 221.842" stroke="#263238" stroke-width="0.5" stroke-linecap="round" stroke-linejoin="round"/>
<path d="M59.7241 256.273C58.5495 253.702 58.0801 250.864 58.364 248.052C58.9787 243.841 59.4551 238.447 59.6703 236.303" stroke="#263238" stroke-width="0.5" stroke-linecap="round" stroke-linejoin="round"/>
<path d="M12.4144 199.797C12.4144 199.797 11.2695 197.73 12.5681 193.235C13.8667 188.74 14.8118 186.066 14.8118 186.066C14.8118 186.066 18.8842 190.023 17.7931 194.395C16.9401 197.523 15.8272 200.574 14.466 203.516L12.4144 199.797Z" fill="#FAB915"/>
<path d="M23.7406 210.386C23.7406 210.386 22.6034 208.319 23.8943 203.824C25.1852 199.329 26.138 196.655 26.138 196.655C26.138 196.655 30.2104 200.612 29.1193 204.984C28.271 208.112 27.1606 211.163 25.7999 214.105L23.7406 210.386Z" fill="#FAB915"/>
<path d="M14.543 203.217C14.543 203.217 13.1906 201.28 8.58031 200.466C3.97 199.651 1.15771 199.321 1.15771 199.321C1.15771 199.321 2.91732 204.699 7.30479 205.668C10.4897 206.282 13.7206 206.626 16.9634 206.697L14.543 203.217Z" fill="#FAB915"/>
<path d="M28.0358 215.695C28.0358 215.695 26.4991 213.913 21.8196 213.59C17.1402 213.267 14.3125 213.236 14.3125 213.236C14.3125 213.236 16.6177 218.415 21.1127 218.899C24.342 219.168 27.5881 219.168 30.8174 218.899L28.0358 215.695Z" fill="#FAB915"/>
<path d="M36.2576 232.807C36.2576 232.807 35.1127 230.74 30.6254 229.441C26.138 228.143 23.3564 227.521 23.3564 227.521C23.3564 227.521 24.5398 233.076 28.8197 234.482C31.9199 235.428 35.0943 236.112 38.3092 236.526L36.2576 232.807Z" fill="#FAB915"/>
<path d="M38.5472 236.833C38.5472 236.833 37.1257 234.951 37.7788 230.325C38.4319 225.7 38.9852 222.903 38.9852 222.903C38.9852 222.903 43.5955 226.237 43.1191 230.732C42.7214 233.949 42.0531 237.126 41.1213 240.23L38.5472 236.833Z" fill="#FAB915"/>
<path d="M50.8414 252.439C50.8414 252.439 50.3343 250.134 52.8392 246.192C55.3442 242.25 57.0116 239.938 57.0116 239.938C57.0116 239.938 59.8085 244.886 57.5264 248.774C55.8291 251.537 53.9013 254.151 51.7635 256.589L50.8414 252.439Z" fill="#FAB915"/>
<path d="M48.0368 247.283C48.0368 247.283 46.8996 245.216 42.4045 243.925C37.9095 242.635 35.1433 241.997 35.1433 241.997C35.1433 241.997 36.3189 247.552 40.6065 248.966C43.7062 249.921 46.8805 250.615 50.0961 251.041L48.0368 247.283Z" fill="#FAB915"/>
<path d="M52.1246 259.255C52.1246 259.255 51.5483 256.95 47.5143 254.575C43.4803 252.201 40.9753 250.872 40.9753 250.872C40.9753 250.872 40.7064 256.542 44.4946 258.994C47.2536 260.693 50.1503 262.158 53.1542 263.373L52.1246 259.255Z" fill="#FAB915"/>
<path d="M11.8613 199.413C13.1972 201.482 14.6439 203.478 16.195 205.391C20.6055 210.67 25.5693 212.906 29.6648 217.608C33.7603 222.311 34.2751 231.009 38.9315 237.379C43.5879 243.749 48.3749 246.085 50.1345 251.087C51.8941 256.089 54.7449 270.681 54.7449 270.681" stroke="#263238" stroke-width="0.5" stroke-linecap="round" stroke-linejoin="round"/>
<path d="M15.3268 204.577L10.8855 203.9" stroke="#263238" stroke-width="0.5" stroke-linecap="round" stroke-linejoin="round"/>
<path d="M13.6594 201.895L13.6825 198.86" stroke="#263238" stroke-width="0.5" stroke-linecap="round" stroke-linejoin="round"/>
<path d="M29.3498 217.462C29.3498 217.462 25.6616 216.948 21.8965 216.471" stroke="#263238" stroke-width="0.5" stroke-linecap="round" stroke-linejoin="round"/>
<path d="M25.7997 214.104C25.7092 210.871 25.9512 207.637 26.522 204.454" stroke="#263238" stroke-width="0.5" stroke-linecap="round" stroke-linejoin="round"/>
<path d="M37.7788 235.804C34.7701 233.88 31.4987 232.402 28.0664 231.416" stroke="#263238" stroke-width="0.5" stroke-linecap="round" stroke-linejoin="round"/>
<path d="M39.8921 238.424C39.6524 236.127 39.6061 233.813 39.7538 231.508C40.0381 228.435 40.0918 228.012 40.0918 228.012" stroke="#263238" stroke-width="0.5" stroke-linecap="round" stroke-linejoin="round"/>
<path d="M51.2795 254.936C51.969 253.003 52.8278 251.133 53.8459 249.35C54.5414 248.335 55.1554 247.266 55.6824 246.154" stroke="#263238" stroke-width="0.5" stroke-linecap="round" stroke-linejoin="round"/>
<path d="M50.1344 251.087C48.5684 249.809 46.9063 248.653 45.163 247.629C43.4764 246.72 41.7187 245.949 39.9072 245.324" stroke="#263238" stroke-width="0.5" stroke-linecap="round" stroke-linejoin="round"/>
<path d="M53.1698 263.373C52.4541 261.721 51.311 260.288 49.858 259.224C47.6143 257.726 44.8558 255.651 43.7109 254.844" stroke="#263238" stroke-width="0.5" stroke-linecap="round" stroke-linejoin="round"/>
<path d="M232.295 153.917H178.193C176.28 153.917 174.728 155.468 174.728 157.382V274.077C174.728 275.991 176.28 277.542 178.193 277.542H232.295C234.209 277.542 235.761 275.991 235.761 274.077V157.382C235.761 155.468 234.209 153.917 232.295 153.917Z" fill="white" stroke="#263238" stroke-width="1.01" stroke-linecap="round" stroke-linejoin="round"/>
<path d="M230.659 170.138H179.838C177.924 170.138 176.372 171.689 176.372 173.603V271.126C176.372 273.04 177.924 274.592 179.838 274.592H230.659C232.573 274.592 234.124 273.04 234.124 271.126V173.603C234.124 171.689 232.573 170.138 230.659 170.138Z" fill="#FAB915"/>
<path opacity="0.5" d="M230.659 170.138H179.838C177.924 170.138 176.372 171.689 176.372 173.603V271.126C176.372 273.04 177.924 274.592 179.838 274.592H230.659C232.573 274.592 234.124 273.04 234.124 271.126V173.603C234.124 171.689 232.573 170.138 230.659 170.138Z" fill="white"/>
<path d="M219.771 127.254H190.733V153.917H219.771V127.254Z" fill="#263238" stroke="#263238" stroke-width="1.01" stroke-linecap="round" stroke-linejoin="round"/>
<path d="M193.154 129.89V151.043" stroke="white" stroke-width="1.01" stroke-linecap="round" stroke-linejoin="round"/>
<path d="M197.641 129.89V151.043" stroke="white" stroke-width="1.01" stroke-linecap="round" stroke-linejoin="round"/>
<path d="M204.05 136.621V151.043" stroke="white" stroke-width="1.01" stroke-linecap="round" stroke-linejoin="round"/>
<path d="M204.05 129.89V133.417" stroke="white" stroke-width="1.01" stroke-linecap="round" stroke-linejoin="round"/>
<path d="M232.28 180.15H178.217V239.815H232.28V180.15Z" fill="white"/>
<path d="M204.887 231.547C215.946 231.547 224.911 222.582 224.911 211.523C224.911 200.464 215.946 191.499 204.887 191.499C193.828 191.499 184.863 200.464 184.863 211.523C184.863 222.582 193.828 231.547 204.887 231.547Z" fill="#263238"/>
<path d="M208.552 197.746H201.222V225.3H208.552V197.746Z" fill="#FAB915"/>
<path d="M218.664 215.188V207.858H191.11V215.188H218.664Z" fill="#FAB915"/>
<path d="M289.417 220.997H204.303C202.287 220.997 200.653 222.631 200.653 224.647V274.154C200.653 276.169 202.287 277.803 204.303 277.803H289.417C291.433 277.803 293.067 276.169 293.067 274.154V224.647C293.067 222.631 291.433 220.997 289.417 220.997Z" fill="white" stroke="#263238" stroke-linecap="round" stroke-linejoin="round"/>
<path d="M209.497 245.662C208.593 245.662 207.725 245.303 207.085 244.663C206.445 244.023 206.086 243.155 206.086 242.25V233.03C206.085 232.581 206.172 232.137 206.343 231.722C206.514 231.307 206.765 230.93 207.082 230.612C207.399 230.295 207.776 230.043 208.19 229.871C208.604 229.699 209.049 229.61 209.497 229.61C210.404 229.61 211.274 229.971 211.915 230.612C212.556 231.253 212.917 232.123 212.917 233.03V242.25C212.917 242.699 212.828 243.143 212.656 243.558C212.484 243.972 212.232 244.349 211.915 244.666C211.597 244.982 211.22 245.234 210.805 245.405C210.39 245.576 209.946 245.663 209.497 245.662Z" fill="#263238" stroke="#263238" stroke-width="1.01" stroke-linecap="round" stroke-linejoin="round"/>
<path d="M211.81 232.715V238.431" stroke="white" stroke-width="1.01" stroke-linecap="round" stroke-linejoin="round"/>
<path d="M211.81 239.907V243.042" stroke="white" stroke-width="1.01" stroke-linecap="round" stroke-linejoin="round"/>
<path d="M224.427 245.662C223.522 245.662 222.655 245.303 222.015 244.663C221.375 244.023 221.016 243.155 221.016 242.25V233.03C221.015 232.581 221.102 232.137 221.273 231.722C221.444 231.307 221.695 230.93 222.012 230.612C222.329 230.295 222.706 230.043 223.12 229.871C223.534 229.699 223.979 229.61 224.427 229.61C224.876 229.61 225.32 229.699 225.735 229.871C226.149 230.043 226.525 230.295 226.842 230.612C227.159 230.93 227.41 231.307 227.581 231.722C227.752 232.137 227.84 232.581 227.839 233.03V242.25C227.839 243.155 227.479 244.023 226.84 244.663C226.2 245.303 225.332 245.662 224.427 245.662Z" fill="#263238" stroke="#263238" stroke-width="1.01" stroke-linecap="round" stroke-linejoin="round"/>
<path d="M226.748 232.715V238.431" stroke="white" stroke-width="1.01" stroke-linecap="round" stroke-linejoin="round"/>
<path d="M226.748 239.907V243.042" stroke="white" stroke-width="1.01" stroke-linecap="round" stroke-linejoin="round"/>
<path d="M239.387 245.662C238.483 245.662 237.615 245.303 236.975 244.663C236.335 244.023 235.976 243.155 235.976 242.25V233.03C235.975 232.581 236.062 232.137 236.233 231.722C236.404 231.307 236.655 230.93 236.972 230.612C237.289 230.295 237.666 230.043 238.08 229.871C238.495 229.699 238.939 229.61 239.387 229.61C239.836 229.61 240.28 229.699 240.695 229.871C241.109 230.043 241.486 230.295 241.803 230.612C242.119 230.93 242.371 231.307 242.542 231.722C242.713 232.137 242.8 232.581 242.799 233.03V242.25C242.799 243.155 242.44 244.023 241.8 244.663C241.16 245.303 240.292 245.662 239.387 245.662Z" fill="#263238" stroke="#263238" stroke-width="1.01" stroke-linecap="round" stroke-linejoin="round"/>
<path d="M241.693 232.715V238.431" stroke="white" stroke-width="1.01" stroke-linecap="round" stroke-linejoin="round"/>
<path d="M241.693 239.907V243.042" stroke="white" stroke-width="1.01" stroke-linecap="round" stroke-linejoin="round"/>
<path d="M254.333 245.662C253.428 245.662 252.56 245.303 251.92 244.663C251.281 244.023 250.921 243.155 250.921 242.25V233.03C250.92 232.581 251.008 232.137 251.179 231.722C251.35 231.307 251.601 230.93 251.918 230.612C252.235 230.295 252.611 230.043 253.025 229.871C253.44 229.699 253.884 229.61 254.333 229.61C254.781 229.61 255.226 229.699 255.64 229.871C256.055 230.043 256.431 230.295 256.748 230.612C257.065 230.93 257.316 231.307 257.487 231.722C257.658 232.137 257.745 232.581 257.744 233.03V242.25C257.744 243.155 257.385 244.023 256.745 244.663C256.105 245.303 255.238 245.662 254.333 245.662Z" fill="#263238" stroke="#263238" stroke-width="1.01" stroke-linecap="round" stroke-linejoin="round"/>
<path d="M256.638 232.715V238.431" stroke="white" stroke-width="1.01" stroke-linecap="round" stroke-linejoin="round"/>
<path d="M256.638 239.907V243.042" stroke="white" stroke-width="1.01" stroke-linecap="round" stroke-linejoin="round"/>
<path d="M269.278 245.662C268.829 245.663 268.385 245.576 267.97 245.405C267.555 245.234 267.178 244.982 266.86 244.666C266.543 244.349 266.291 243.972 266.119 243.558C265.947 243.143 265.858 242.699 265.858 242.25V233.03C265.858 232.123 266.219 231.253 266.86 230.612C267.501 229.971 268.371 229.61 269.278 229.61C269.726 229.61 270.171 229.699 270.585 229.871C271 230.043 271.376 230.295 271.693 230.612C272.01 230.93 272.261 231.307 272.432 231.722C272.603 232.137 272.69 232.581 272.689 233.03V242.25C272.689 243.155 272.33 244.023 271.69 244.663C271.05 245.303 270.183 245.662 269.278 245.662Z" fill="#263238" stroke="#263238" stroke-width="1.01" stroke-linecap="round" stroke-linejoin="round"/>
<path d="M271.583 232.715V238.431" stroke="white" stroke-width="1.01" stroke-linecap="round" stroke-linejoin="round"/>
<path d="M271.583 239.907V243.042" stroke="white" stroke-width="1.01" stroke-linecap="round" stroke-linejoin="round"/>
<path d="M284.215 245.662C283.31 245.662 282.443 245.303 281.803 244.663C281.163 244.023 280.803 243.155 280.803 242.25V233.03C280.802 232.581 280.89 232.137 281.061 231.722C281.232 231.307 281.483 230.93 281.8 230.612C282.117 230.295 282.493 230.043 282.908 229.871C283.322 229.699 283.766 229.61 284.215 229.61C284.664 229.61 285.108 229.699 285.522 229.871C285.937 230.043 286.313 230.295 286.63 230.612C286.947 230.93 287.198 231.307 287.369 231.722C287.54 232.137 287.628 232.581 287.627 233.03V242.25C287.627 243.155 287.267 244.023 286.627 244.663C285.988 245.303 285.12 245.662 284.215 245.662Z" fill="#263238" stroke="#263238" stroke-width="1.01" stroke-linecap="round" stroke-linejoin="round"/>
<path d="M286.52 232.715V238.431" stroke="white" stroke-width="1.01" stroke-linecap="round" stroke-linejoin="round"/>
<path d="M286.52 239.907V243.042" stroke="white" stroke-width="1.01" stroke-linecap="round" stroke-linejoin="round"/>
<path d="M209.497 270.158C208.593 270.158 207.725 269.799 207.085 269.159C206.445 268.519 206.086 267.651 206.086 266.746V257.526C206.086 256.621 206.445 255.753 207.085 255.114C207.725 254.474 208.593 254.114 209.497 254.114C209.946 254.113 210.39 254.201 210.805 254.372C211.22 254.543 211.597 254.794 211.915 255.111C212.232 255.428 212.484 255.804 212.656 256.219C212.828 256.633 212.917 257.077 212.917 257.526V266.746C212.917 267.195 212.828 267.639 212.656 268.054C212.484 268.468 212.232 268.845 211.915 269.162C211.597 269.478 211.22 269.73 210.805 269.901C210.39 270.072 209.946 270.159 209.497 270.158Z" fill="#263238" stroke="#263238" stroke-width="1.01" stroke-linecap="round" stroke-linejoin="round"/>
<path d="M211.81 257.249V262.966" stroke="white" stroke-width="1.01" stroke-linecap="round" stroke-linejoin="round"/>
<path d="M211.81 264.441V267.576" stroke="white" stroke-width="1.01" stroke-linecap="round" stroke-linejoin="round"/>
<path d="M224.427 270.158C223.522 270.158 222.655 269.799 222.015 269.159C221.375 268.519 221.016 267.651 221.016 266.746V257.526C221.016 256.621 221.375 255.753 222.015 255.114C222.655 254.474 223.522 254.114 224.427 254.114C224.876 254.113 225.32 254.201 225.734 254.372C226.148 254.543 226.525 254.794 226.842 255.111C227.159 255.428 227.41 255.805 227.581 256.219C227.752 256.633 227.84 257.078 227.839 257.526V266.746C227.84 267.195 227.752 267.639 227.581 268.053C227.41 268.468 227.159 268.844 226.842 269.161C226.525 269.478 226.148 269.729 225.734 269.9C225.32 270.072 224.876 270.159 224.427 270.158Z" fill="#263238" stroke="#263238" stroke-width="1.01" stroke-linecap="round" stroke-linejoin="round"/>
<path d="M226.748 257.249V262.966" stroke="white" stroke-width="1.01" stroke-linecap="round" stroke-linejoin="round"/>
<path d="M226.748 264.441V267.576" stroke="white" stroke-width="1.01" stroke-linecap="round" stroke-linejoin="round"/>
<path d="M239.387 270.158C238.483 270.158 237.615 269.799 236.975 269.159C236.335 268.519 235.976 267.651 235.976 266.746V257.526C235.976 256.621 236.335 255.753 236.975 255.113C237.615 254.474 238.483 254.114 239.387 254.114C240.292 254.114 241.16 254.474 241.8 255.113C242.44 255.753 242.799 256.621 242.799 257.526V266.746C242.799 267.651 242.44 268.519 241.8 269.159C241.16 269.799 240.292 270.158 239.387 270.158Z" fill="#263238" stroke="#263238" stroke-width="1.01" stroke-linecap="round" stroke-linejoin="round"/>
<path d="M241.693 257.249V262.966" stroke="white" stroke-width="1.01" stroke-linecap="round" stroke-linejoin="round"/>
<path d="M241.693 264.441V267.576" stroke="white" stroke-width="1.01" stroke-linecap="round" stroke-linejoin="round"/>
<path d="M254.333 270.158C253.884 270.159 253.44 270.072 253.026 269.9C252.612 269.729 252.235 269.478 251.918 269.161C251.601 268.844 251.35 268.468 251.179 268.053C251.008 267.639 250.92 267.195 250.921 266.746V257.526C250.92 257.078 251.008 256.633 251.179 256.219C251.35 255.805 251.601 255.428 251.918 255.111C252.235 254.794 252.612 254.543 253.026 254.372C253.44 254.201 253.884 254.113 254.333 254.114C255.238 254.114 256.105 254.474 256.745 255.114C257.385 255.753 257.744 256.621 257.744 257.526V266.746C257.744 267.651 257.385 268.519 256.745 269.159C256.105 269.799 255.238 270.158 254.333 270.158Z" fill="#263238" stroke="#263238" stroke-width="1.01" stroke-linecap="round" stroke-linejoin="round"/>
<path d="M256.638 257.249V262.966" stroke="white" stroke-width="1.01" stroke-linecap="round" stroke-linejoin="round"/>
<path d="M256.638 264.441V267.576" stroke="white" stroke-width="1.01" stroke-linecap="round" stroke-linejoin="round"/>
<path d="M269.278 270.158C268.829 270.159 268.385 270.072 267.97 269.901C267.555 269.73 267.178 269.478 266.86 269.162C266.543 268.845 266.291 268.468 266.119 268.054C265.947 267.639 265.858 267.195 265.858 266.746V257.526C265.858 257.077 265.947 256.633 266.119 256.219C266.291 255.804 266.543 255.428 266.86 255.111C267.178 254.794 267.555 254.543 267.97 254.372C268.385 254.201 268.829 254.113 269.278 254.114C270.183 254.114 271.05 254.474 271.69 255.114C272.33 255.753 272.689 256.621 272.689 257.526V266.746C272.689 267.651 272.33 268.519 271.69 269.159C271.05 269.799 270.183 270.158 269.278 270.158Z" fill="#263238" stroke="#263238" stroke-width="1.01" stroke-linecap="round" stroke-linejoin="round"/>
<path d="M271.583 257.249V262.966" stroke="white" stroke-width="1.01" stroke-linecap="round" stroke-linejoin="round"/>
<path d="M271.583 264.441V267.576" stroke="white" stroke-width="1.01" stroke-linecap="round" stroke-linejoin="round"/>
<path d="M284.215 270.158C283.31 270.158 282.443 269.799 281.803 269.159C281.163 268.519 280.803 267.651 280.803 266.746V257.526C280.803 256.621 281.163 255.753 281.803 255.114C282.443 254.474 283.31 254.114 284.215 254.114C284.663 254.113 285.107 254.201 285.522 254.372C285.936 254.543 286.313 254.794 286.63 255.111C286.947 255.428 287.198 255.805 287.369 256.219C287.54 256.633 287.628 257.078 287.627 257.526V266.746C287.628 267.195 287.54 267.639 287.369 268.053C287.198 268.468 286.947 268.844 286.63 269.161C286.313 269.478 285.936 269.729 285.522 269.9C285.107 270.072 284.663 270.159 284.215 270.158Z" fill="#263238" stroke="#263238" stroke-width="1.01" stroke-linecap="round" stroke-linejoin="round"/>
<path d="M286.52 257.249V262.966" stroke="white" stroke-width="1.01" stroke-linecap="round" stroke-linejoin="round"/>
<path d="M286.52 264.441V267.576" stroke="white" stroke-width="1.01" stroke-linecap="round" stroke-linejoin="round"/>
<path d="M217.058 223.948V225.868" stroke="#263238" stroke-width="0.5" stroke-linecap="round" stroke-linejoin="round"/>
<path d="M217.058 229.434V270.427" stroke="#263238" stroke-width="0.5" stroke-linecap="round" stroke-linejoin="round" stroke-dasharray="4.64 4.64"/>
<path d="M217.058 272.21V274.131" stroke="#263238" stroke-width="0.5" stroke-linecap="round" stroke-linejoin="round"/>
<path d="M232.003 223.948V225.868" stroke="#263238" stroke-width="0.5" stroke-linecap="round" stroke-linejoin="round"/>
<path d="M232.003 229.434V270.427" stroke="#263238" stroke-width="0.5" stroke-linecap="round" stroke-linejoin="round" stroke-dasharray="4.64 4.64"/>
<path d="M232.003 272.21V274.131" stroke="#263238" stroke-width="0.5" stroke-linecap="round" stroke-linejoin="round"/>
<path d="M246.948 223.948V225.868" stroke="#263238" stroke-width="0.5" stroke-linecap="round" stroke-linejoin="round"/>
<path d="M246.948 229.434V270.427" stroke="#263238" stroke-width="0.5" stroke-linecap="round" stroke-linejoin="round" stroke-dasharray="4.64 4.64"/>
<path d="M246.948 272.21V274.131" stroke="#263238" stroke-width="0.5" stroke-linecap="round" stroke-linejoin="round"/>
<path d="M261.886 223.948V225.868" stroke="#263238" stroke-width="0.5" stroke-linecap="round" stroke-linejoin="round"/>
<path d="M261.886 229.434V270.427" stroke="#263238" stroke-width="0.5" stroke-linecap="round" stroke-linejoin="round" stroke-dasharray="4.64 4.64"/>
<path d="M261.886 272.21V274.131" stroke="#263238" stroke-width="0.5" stroke-linecap="round" stroke-linejoin="round"/>
<path d="M276.831 223.948V225.868" stroke="#263238" stroke-width="0.5" stroke-linecap="round" stroke-linejoin="round"/>
<path d="M276.831 229.434V270.427" stroke="#263238" stroke-width="0.5" stroke-linecap="round" stroke-linejoin="round" stroke-dasharray="4.64 4.64"/>
<path d="M276.831 272.21V274.131" stroke="#263238" stroke-width="0.5" stroke-linecap="round" stroke-linejoin="round"/>
<path d="M203.035 249.404H290.301" stroke="#263238" stroke-width="0.5" stroke-linecap="round" stroke-linejoin="round" stroke-dasharray="5 5"/>
<path d="M286.466 228.858V216.31H266.173V228.858L261.31 235.519C260.626 236.462 260.257 237.597 260.257 238.762V277.542H292.352V238.747C292.352 237.582 291.984 236.447 291.3 235.504L286.466 228.858Z" fill="#263238" stroke="#263238" stroke-width="1.01" stroke-linecap="round" stroke-linejoin="round"/>
<path d="M286.474 210.555H266.258V212.729H286.474V210.555Z" fill="#263238" stroke="#263238" stroke-width="1.01" stroke-linecap="round" stroke-linejoin="round"/>
<path d="M289.409 205.614H263.223V211.185H289.409V205.614Z" fill="#FAB915" stroke="#263238" stroke-width="1.01" stroke-linecap="round" stroke-linejoin="round"/>
<path d="M288.433 212.622H264.199C263.66 212.622 263.223 213.058 263.223 213.597V216.072C263.223 216.611 263.66 217.047 264.199 217.047H288.433C288.972 217.047 289.409 216.611 289.409 216.072V213.597C289.409 213.058 288.972 212.622 288.433 212.622Z" fill="#263238" stroke="#263238" stroke-width="1.01" stroke-linecap="round" stroke-linejoin="round"/>
<path d="M281.011 241.136H260.265V266.969H281.011V241.136Z" fill="#FAB915" stroke="#263238" stroke-width="1.01" stroke-linecap="round" stroke-linejoin="round"/>
<path d="M158.584 34.8789H56.612C50.4502 34.8789 45.4551 39.874 45.4551 46.0358V266.27C45.4551 272.432 50.4502 277.427 56.612 277.427H158.584C164.746 277.427 169.741 272.432 169.741 266.27V46.0358C169.741 39.874 164.746 34.8789 158.584 34.8789Z" fill="#263238"/>
<path opacity="0.2" d="M56.151 34.8789C53.3102 34.8789 50.5857 36.0074 48.577 38.0162C46.5682 40.0249 45.4397 42.7494 45.4397 45.5902V266.716C45.4382 268.283 45.7817 269.831 46.4457 271.251C47.1096 272.67 48.0778 273.926 49.2816 274.93L121.794 34.8789H56.151Z" fill="white"/>
<path d="M111.828 270.412C111.828 269.576 111.58 268.759 111.116 268.064C110.652 267.369 109.992 266.827 109.219 266.507C108.447 266.188 107.597 266.104 106.778 266.267C105.958 266.43 105.205 266.832 104.614 267.423C104.023 268.015 103.62 268.768 103.457 269.587C103.294 270.407 103.378 271.257 103.698 272.029C104.018 272.801 104.559 273.461 105.254 273.926C105.949 274.39 106.766 274.638 107.602 274.638C108.723 274.638 109.798 274.193 110.59 273.4C111.383 272.608 111.828 271.533 111.828 270.412V270.412Z" stroke="white" stroke-linecap="round" stroke-linejoin="round"/>
<path d="M158.584 34.8789H56.612C50.4502 34.8789 45.4551 39.874 45.4551 46.0358V266.27C45.4551 272.432 50.4502 277.427 56.612 277.427H158.584C164.746 277.427 169.741 272.432 169.741 266.27V46.0358C169.741 39.874 164.746 34.8789 158.584 34.8789Z" stroke="#263238" stroke-linecap="round" stroke-linejoin="round"/>
<path d="M164.224 51.353H50.9875V263.035H164.224V51.353Z" fill="#FAB915"/>
<path d="M142.978 155.807L125.029 139.587L107.602 139.886L90.175 139.587L72.2256 155.807L29.78 183.761V266.239H105.358H109.846H185.424V183.761L142.978 155.807Z" fill="white" stroke="#263238" stroke-width="1.01" stroke-linecap="round" stroke-linejoin="round"/>
<path d="M106.15 216.825L98.4121 227.797C98.4121 227.797 107.633 223.617 116.515 219.998C125.398 216.379 136.562 204.961 139.067 200.788C141.572 196.616 145.214 190.484 145.214 190.484L134.057 181.886H146.052C146.052 181.886 145.768 168.824 142.149 158.212" stroke="#263238" stroke-width="1.01" stroke-linecap="round" stroke-linejoin="round"/>
<path d="M102.615 221.619C101.317 221.074 100.003 220.528 98.6889 219.998C89.7833 216.379 78.6417 204.961 76.1368 200.788C73.6318 196.616 69.9897 190.484 69.9897 190.484L81.1543 181.886H69.2136C69.2136 181.886 69.4979 168.824 73.117 158.212" stroke="#263238" stroke-width="1.01" stroke-linecap="round" stroke-linejoin="round"/>
<path d="M88.6306 140.816C88.6306 140.816 85.1652 195.84 106.15 216.825C106.15 216.825 128.287 201.626 128.287 141.477L88.6306 140.816Z" fill="white"/>
<path d="M100.348 78.2004H118.198C123.315 78.2004 128.223 80.2332 131.841 83.8516C135.459 87.4699 137.492 92.3774 137.492 97.4946V137.535C137.493 140.937 136.824 144.305 135.523 147.448C134.223 150.591 132.315 153.447 129.911 155.853C127.506 158.259 124.651 160.168 121.509 161.47C118.367 162.773 114.999 163.444 111.598 163.445H106.987C103.586 163.445 100.217 162.775 97.0748 161.473C93.9322 160.172 91.0768 158.264 88.6715 155.858C86.2663 153.453 84.3584 150.598 83.0567 147.455C81.7549 144.312 81.085 140.944 81.085 137.543V97.4946C81.085 92.3774 83.1177 87.4699 86.7361 83.8516C90.3544 80.2332 95.262 78.2004 100.379 78.2004H100.348Z" fill="#FAB915"/>
<path opacity="0.5" d="M100.348 78.2004H118.198C123.315 78.2004 128.223 80.2332 131.841 83.8516C135.459 87.4699 137.492 92.3774 137.492 97.4946V137.535C137.493 140.937 136.824 144.305 135.523 147.448C134.223 150.591 132.315 153.447 129.911 155.853C127.506 158.259 124.651 160.168 121.509 161.47C118.367 162.773 114.999 163.444 111.598 163.445H106.987C103.586 163.445 100.217 162.775 97.0748 161.473C93.9322 160.172 91.0768 158.264 88.6715 155.858C86.2663 153.453 84.3584 150.598 83.0567 147.455C81.7549 144.312 81.085 140.944 81.085 137.543V97.4946C81.085 92.3774 83.1177 87.4699 86.7361 83.8516C90.3544 80.2332 95.262 78.2004 100.379 78.2004H100.348Z" fill="white"/>
<path d="M88.6306 140.816C88.6306 140.816 85.1652 195.84 106.15 216.825C106.15 216.825 128.287 201.626 128.287 141.477L88.6306 140.816Z" stroke="#263238" stroke-width="1.01" stroke-linecap="round" stroke-linejoin="round"/>
<path d="M97.4593 136.129C97.4593 136.129 95.5384 160.141 107.133 169.3C107.133 169.3 119.366 162.669 119.366 136.421L97.4593 136.129Z" stroke="#263238" stroke-width="1.01" stroke-linecap="round" stroke-linejoin="round"/>
<path d="M93.5867 176.838L107.133 169.3L122.34 179.812" stroke="#263238" stroke-width="1.01" stroke-linecap="round" stroke-linejoin="round"/>
<path d="M110.776 181.464L113.419 173.864L107.133 169.3L98.8732 173.864L103.169 180.78L96.3914 201.134C98.8348 207.22 102.016 212.66 106.15 216.802C106.15 216.802 112.036 212.76 117.737 200.596L110.776 181.464Z" fill="#FAB915" stroke="#263238" stroke-width="1.01" stroke-linecap="round" stroke-linejoin="round"/>
<path d="M137.852 222.951C143.871 221.97 147.954 216.295 146.973 210.276C145.992 204.258 140.317 200.174 134.299 201.155C128.28 202.137 124.196 207.811 125.178 213.83C126.159 219.849 131.834 223.932 137.852 222.951Z" fill="white" stroke="#263238" stroke-width="1.01" stroke-linecap="round" stroke-linejoin="round"/>
<path d="M143.405 215.066C145.072 211.012 143.137 206.374 139.082 204.707C135.028 203.04 130.39 204.975 128.723 209.029C127.056 213.084 128.991 217.722 133.046 219.389C137.1 221.056 141.738 219.12 143.405 215.066Z" fill="white" stroke="#263238" stroke-width="1.01" stroke-linecap="round" stroke-linejoin="round"/>
<path d="M136.063 213.743C135.615 213.743 135.185 213.565 134.868 213.248C134.551 212.931 134.373 212.501 134.373 212.053V147.178C134.373 146.73 134.551 146.3 134.868 145.983C135.185 145.666 135.615 145.488 136.063 145.488C136.511 145.488 136.941 145.666 137.258 145.983C137.575 146.3 137.753 146.73 137.753 147.178V212.053C137.754 212.275 137.711 212.496 137.627 212.701C137.542 212.907 137.418 213.093 137.261 213.251C137.103 213.408 136.917 213.532 136.711 213.617C136.506 213.701 136.285 213.744 136.063 213.743Z" fill="#263238"/>
<path d="M82.7141 237.271H82.5527C81.0159 237.01 66.2706 222.672 64.8798 218.83C63.4891 214.988 63.8809 208.841 63.8963 208.611C63.9106 208.386 64.0133 208.177 64.1819 208.029C64.3505 207.88 64.5712 207.805 64.7953 207.819C65.0195 207.833 65.2288 207.936 65.3772 208.105C65.5256 208.273 65.601 208.494 65.5868 208.718C65.5868 208.772 65.241 214.75 66.4704 218.277C67.5999 221.496 80.7239 234.352 82.7986 235.604C83.9511 235.243 88.1773 231.455 89.714 227.574C89.7549 227.471 89.8157 227.377 89.8931 227.297C89.9704 227.217 90.0627 227.153 90.1648 227.109C90.2668 227.064 90.3765 227.041 90.4877 227.039C90.5989 227.037 90.7094 227.057 90.8128 227.098C90.9163 227.139 91.0106 227.2 91.0905 227.277C91.1705 227.354 91.2343 227.447 91.2786 227.549C91.3228 227.651 91.3465 227.76 91.3484 227.872C91.3502 227.983 91.3301 228.093 91.2892 228.197C89.691 232.308 84.6581 237.271 82.7141 237.271Z" fill="white" stroke="#263238" stroke-width="1.01" stroke-linecap="round" stroke-linejoin="round"/>
<path d="M69.6132 237.271C67.6615 237.271 62.6362 232.308 61.0072 228.151C60.9247 227.942 60.9285 227.709 61.0179 227.503C61.1072 227.297 61.2748 227.134 61.4836 227.052C61.6925 226.969 61.9256 226.973 62.1317 227.063C62.3378 227.152 62.4999 227.319 62.5824 227.528C64.1192 231.409 68.3376 235.212 69.4979 235.558C71.5725 234.306 84.6966 221.45 85.8261 218.231C87.0555 214.704 86.7174 208.726 86.7097 208.672C86.6955 208.448 86.7708 208.227 86.9193 208.059C87.0677 207.89 87.277 207.787 87.5012 207.773C87.7253 207.759 87.946 207.834 88.1146 207.983C88.2832 208.131 88.3859 208.34 88.4002 208.565C88.4002 208.826 88.769 214.942 87.4166 218.784C86.0643 222.626 71.3497 236.995 69.7438 237.225L69.6132 237.271Z" fill="white" stroke="#263238" stroke-width="1.01" stroke-linecap="round" stroke-linejoin="round"/>
<path d="M76.3672 179.927C75.9195 179.925 75.4907 179.746 75.1741 179.429C74.8575 179.113 74.6788 178.684 74.6768 178.236V149.937C74.6768 149.488 74.8549 149.058 75.1719 148.741C75.4889 148.424 75.9189 148.246 76.3672 148.246C76.8155 148.246 77.2455 148.424 77.5625 148.741C77.8795 149.058 78.0576 149.488 78.0576 149.937V178.236C78.0576 178.458 78.0139 178.678 77.929 178.883C77.844 179.088 77.7195 179.275 77.5625 179.432C77.4055 179.589 77.2192 179.713 77.0141 179.798C76.809 179.883 76.5892 179.927 76.3672 179.927Z" fill="#263238"/>
<path d="M87.4089 212.022C86.9612 212.02 86.5324 211.841 86.2159 211.525C85.8993 211.208 85.7205 210.78 85.7185 210.332V189.97C85.7185 187.398 84.6969 184.931 82.8783 183.113C81.0598 181.294 78.5933 180.273 76.0215 180.273C73.4497 180.273 70.9832 181.294 69.1647 183.113C67.3461 184.931 66.3245 187.398 66.3245 189.97V210.316C66.3245 210.765 66.1464 211.195 65.8294 211.512C65.5124 211.829 65.0824 212.007 64.634 212.007C64.1857 212.007 63.7557 211.829 63.4387 211.512C63.1217 211.195 62.9436 210.765 62.9436 210.316V189.954C62.9436 186.49 64.3198 183.167 66.7695 180.718C69.2192 178.268 72.5417 176.892 76.0061 176.892C79.4705 176.892 82.793 178.268 85.2427 180.718C87.6924 183.167 89.0687 186.49 89.0687 189.954V210.316C89.0708 210.762 88.898 211.19 88.5876 211.509C88.2772 211.828 87.854 212.012 87.4089 212.022Z" fill="#263238"/>
<path d="M59.4456 225.003L59.1604 225.225C58.3024 225.891 58.1472 227.127 58.8136 227.985L60.0628 229.593C60.7292 230.451 61.965 230.606 62.8229 229.94L63.1081 229.718C63.9661 229.052 64.1213 227.816 63.4549 226.958L62.2057 225.35C61.5393 224.492 60.3035 224.337 59.4456 225.003Z" fill="white" stroke="#263238" stroke-width="1.01" stroke-linecap="round" stroke-linejoin="round"/>
<path d="M88.9226 229.708L89.2078 229.93C90.0657 230.596 91.3015 230.441 91.9679 229.583L93.2171 227.975C93.8835 227.117 93.7283 225.881 92.8704 225.215L92.5852 224.993C91.7272 224.327 90.4914 224.482 89.825 225.34L88.5759 226.948C87.9094 227.806 88.0646 229.042 88.9226 229.708Z" fill="white" stroke="#263238" stroke-width="1.01" stroke-linecap="round" stroke-linejoin="round"/>
<path d="M79.5945 105.255H78.8799C76.6647 105.255 74.8689 107.051 74.8689 109.266V116.466C74.8689 118.681 76.6647 120.477 78.8799 120.477H79.5945C81.8097 120.477 83.6054 118.681 83.6054 116.466V109.266C83.6054 107.051 81.8097 105.255 79.5945 105.255Z" fill="white" stroke="#263238" stroke-width="1.01" stroke-linecap="round" stroke-linejoin="round"/>
<path d="M138.637 105.255H137.922C135.707 105.255 133.911 107.051 133.911 109.266V116.466C133.911 118.681 135.707 120.477 137.922 120.477H138.637C140.852 120.477 142.648 118.681 142.648 116.466V109.266C142.648 107.051 140.852 105.255 138.637 105.255Z" fill="white" stroke="#263238" stroke-width="1.01" stroke-linecap="round" stroke-linejoin="round"/>
<path d="M100.348 67.1204H118.198C123.315 67.1204 128.223 69.1531 131.841 72.7715C135.459 76.3898 137.492 81.2974 137.492 86.4145V126.455C137.492 133.325 134.763 139.913 129.906 144.771C125.048 149.628 118.46 152.357 111.59 152.357H106.98C103.578 152.357 100.21 151.687 97.0673 150.386C93.9247 149.084 91.0692 147.176 88.664 144.771C86.2587 142.365 84.3508 139.51 83.0491 136.367C81.7474 133.225 81.0774 129.857 81.0774 126.455V86.4145C81.0774 81.3014 83.107 76.3973 86.7204 72.7796C90.3337 69.1619 95.2353 67.1265 100.348 67.1204Z" fill="white" stroke="#263238" stroke-width="1.01" stroke-linecap="round" stroke-linejoin="round"/>
<path d="M102.638 100.814H93.7403C92.9383 100.814 92.2881 101.464 92.2881 102.266V102.527C92.2881 103.33 92.9383 103.98 93.7403 103.98H102.638C103.44 103.98 104.09 103.33 104.09 102.527V102.266C104.09 101.464 103.44 100.814 102.638 100.814Z" fill="#263238" stroke="#263238" stroke-width="1.01" stroke-linecap="round" stroke-linejoin="round"/>
<path d="M125.959 100.814H117.061C116.259 100.814 115.609 101.464 115.609 102.266V102.527C115.609 103.33 116.259 103.98 117.061 103.98H125.959C126.761 103.98 127.411 103.33 127.411 102.527V102.266C127.411 101.464 126.761 100.814 125.959 100.814Z" fill="#263238" stroke="#263238" stroke-width="1.01" stroke-linecap="round" stroke-linejoin="round"/>
<path d="M101.486 110.465C101.486 112.294 100.648 113.769 99.6108 113.769C98.5735 113.769 97.7437 112.294 97.7437 110.465C97.7437 108.636 98.5812 107.153 99.6108 107.153C100.64 107.153 101.486 108.636 101.486 110.465Z" fill="#263238" stroke="#263238" stroke-width="1.01" stroke-linecap="round" stroke-linejoin="round"/>
<path d="M122.524 110.465C122.524 112.294 121.686 113.769 120.649 113.769C119.612 113.769 118.774 112.294 118.774 110.465C118.774 108.636 119.612 107.153 120.649 107.153C121.686 107.153 122.524 108.636 122.524 110.465Z" fill="#263238" stroke="#263238" stroke-width="1.01" stroke-linecap="round" stroke-linejoin="round"/>
<path d="M119.366 67.1204H99.1806C94.3733 67.1204 89.7628 69.0301 86.3635 72.4294C82.9642 75.8288 81.0544 80.4392 81.0544 85.2466V127.838C81.0544 134.341 83.6377 140.578 88.2359 145.176C92.8342 149.774 99.0707 152.357 105.574 152.357H113.012C116.232 152.358 119.421 151.725 122.396 150.493C125.371 149.261 128.074 147.455 130.351 145.178C132.628 142.901 134.435 140.198 135.666 137.222C136.898 134.247 137.532 131.058 137.531 127.838V85.2466C137.531 82.863 137.061 80.5028 136.147 78.3011C135.234 76.0994 133.895 74.0995 132.208 72.4158C130.521 70.7322 128.518 69.3978 126.314 68.4891C124.111 67.5805 121.75 67.1153 119.366 67.1204ZM133.197 121.837C133.197 121.837 133.197 127.016 128.018 132.203C128.018 132.203 122.547 125.003 120.242 124.426C118.751 124.058 113.204 124.165 109.439 124.288C105.681 124.165 100.126 124.058 98.6812 124.426C96.376 125.003 90.9051 132.203 90.9051 132.203C85.7262 127.016 85.7262 121.837 85.7262 121.837V98.2246L88.4232 94.6747C89.4548 93.355 90.046 91.7448 90.1136 90.0712C90.1811 88.3976 89.7216 86.745 88.7998 85.3465C87.831 83.8611 87.4093 82.0849 87.6069 80.3226C87.8046 78.5603 88.6094 76.9217 89.8832 75.6879L89.937 75.6418C91.1706 74.4484 92.7703 73.7054 94.478 73.5325C96.1857 73.3597 97.9019 73.7671 99.3497 74.689L103.376 77.847C105.132 79.2179 107.296 79.9624 109.523 79.9624C111.751 79.9624 113.914 79.2179 115.67 77.847L119.681 74.689C121.137 73.7615 122.862 73.3511 124.58 73.524C126.297 73.6968 127.906 74.4428 129.148 75.6418L129.194 75.6879C130.469 76.9455 131.268 78.6074 131.453 80.389C131.638 82.1706 131.198 83.9612 130.208 85.454C129.318 86.8483 128.884 88.4846 128.965 90.1366C129.046 91.7886 129.639 93.3744 130.661 94.6747L133.451 98.2246L133.197 121.837Z" fill="#263238" stroke="#263238" stroke-width="1.01" stroke-linecap="round" stroke-linejoin="round"/>
<path d="M113.595 120.853C113.595 120.853 117.053 120.392 117.053 122.39C117.053 124.388 115.032 125.84 111.006 124.403" fill="white"/>
<path d="M113.595 120.853C113.595 120.853 117.053 120.392 117.053 122.39C117.053 124.388 115.032 125.84 111.006 124.403" stroke="#263238" stroke-width="1.01" stroke-linecap="round" stroke-linejoin="round"/>
<path d="M113.303 104.556V121.261C113.303 122.176 112.94 123.055 112.293 123.703C111.647 124.351 110.769 124.716 109.853 124.718H106.78C104.582 124.872 103.814 124.334 103.553 123.404C103.471 123.095 103.455 122.772 103.505 122.456C103.555 122.139 103.671 121.837 103.845 121.568C103.845 120.707 107.517 120.707 107.517 120.707" fill="white"/>
<path d="M113.303 104.556V121.261C113.303 122.176 112.94 123.055 112.293 123.703C111.647 124.351 110.769 124.716 109.853 124.718H106.78C104.582 124.872 103.814 124.334 103.553 123.404C103.471 123.095 103.455 122.772 103.505 122.456C103.555 122.139 103.671 121.837 103.845 121.568V121.568C103.845 120.707 107.517 120.707 107.517 120.707" stroke="#263238" stroke-width="1.01" stroke-linecap="round" stroke-linejoin="round"/>
<path d="M109.684 134.246C106.477 134.264 103.322 133.44 100.533 131.857C100.258 131.673 100.067 131.389 99.9983 131.066C99.9298 130.743 99.9901 130.406 100.166 130.127C100.342 129.848 100.621 129.648 100.942 129.571C101.263 129.494 101.601 129.545 101.885 129.713C104.3 131.033 107.011 131.718 109.763 131.704C112.515 131.691 115.219 130.979 117.622 129.636C117.769 129.549 117.932 129.494 118.102 129.472C118.272 129.45 118.444 129.462 118.608 129.509C118.773 129.555 118.927 129.634 119.06 129.742C119.193 129.849 119.303 129.982 119.383 130.133C119.464 130.284 119.513 130.45 119.527 130.62C119.542 130.79 119.522 130.962 119.469 131.124C119.416 131.287 119.33 131.437 119.217 131.565C119.104 131.694 118.967 131.798 118.813 131.872C116.014 133.41 112.877 134.226 109.684 134.246Z" fill="white" stroke="#263238" stroke-width="1.01" stroke-linecap="round" stroke-linejoin="round"/>
<path d="M118.936 115.459H124.514" stroke="#263238" stroke-width="1.01" stroke-linecap="round" stroke-linejoin="round"/>
<path d="M96.7754 115.459H102.354" stroke="#263238" stroke-width="1.01" stroke-linecap="round" stroke-linejoin="round"/>
<path d="M74.6768 258.141C80.185 258.141 84.6504 253.675 84.6504 248.167C84.6504 242.659 80.185 238.193 74.6768 238.193C69.1685 238.193 64.7031 242.659 64.7031 248.167C64.7031 253.675 69.1685 258.141 74.6768 258.141Z" stroke="#263238" stroke-width="0.724166" stroke-linecap="round" stroke-linejoin="round"/>
<path d="M74.6614 250.634C74.1274 250.634 73.6154 250.422 73.2378 250.044C72.8603 249.666 72.6482 249.154 72.6482 248.621V242.243C72.6482 241.709 72.8603 241.197 73.2378 240.819C73.6154 240.442 74.1274 240.23 74.6614 240.23C75.1953 240.23 75.7074 240.442 76.0849 240.819C76.4624 241.197 76.6745 241.709 76.6745 242.243V248.621C76.6745 249.154 76.4624 249.666 76.0849 250.044C75.7074 250.422 75.1953 250.634 74.6614 250.634Z" fill="#263238"/>
<path d="M74.6768 252.086C73.7338 252.084 72.8301 251.708 72.1634 251.042C71.4966 250.375 71.1212 249.471 71.1191 248.528V245.531C71.1191 245.434 71.158 245.34 71.2272 245.271C71.2963 245.202 71.3902 245.163 71.488 245.163C71.5367 245.162 71.5851 245.17 71.6303 245.189C71.6756 245.207 71.7166 245.234 71.7511 245.268C71.7856 245.303 71.8127 245.344 71.8308 245.389C71.849 245.434 71.8578 245.483 71.8568 245.531V248.528C71.8945 249.252 72.2085 249.933 72.7339 250.432C73.2594 250.93 73.9562 251.209 74.6806 251.209C75.405 251.209 76.1018 250.93 76.6273 250.432C77.1527 249.933 77.4666 249.252 77.5044 248.528V245.531C77.5033 245.483 77.5122 245.434 77.5303 245.389C77.5485 245.344 77.5756 245.303 77.6101 245.268C77.6446 245.234 77.6856 245.207 77.7309 245.189C77.7761 245.17 77.8245 245.162 77.8732 245.163C77.971 245.163 78.0649 245.202 78.134 245.271C78.2032 245.34 78.2421 245.434 78.2421 245.531V248.528C78.24 249.472 77.8635 250.377 77.1951 251.044C76.5267 251.711 75.621 252.086 74.6768 252.086Z" fill="#263238"/>
<path d="M74.6766 255.912C74.6286 255.913 74.581 255.903 74.5366 255.884C74.4923 255.866 74.4522 255.838 74.4185 255.804C74.3849 255.77 74.3585 255.729 74.3408 255.684C74.3231 255.64 74.3145 255.592 74.3155 255.544V251.702C74.3155 251.6 74.356 251.502 74.428 251.43C74.5001 251.358 74.5978 251.318 74.6997 251.318C74.8016 251.318 74.8993 251.358 74.9714 251.43C75.0434 251.502 75.0839 251.6 75.0839 251.702V255.544C75.0854 255.596 75.0756 255.648 75.0552 255.696C75.0347 255.744 75.004 255.787 74.9653 255.822C74.9266 255.857 74.8808 255.883 74.8309 255.899C74.7811 255.915 74.7284 255.919 74.6766 255.912Z" fill="#263238"/>
<path d="M77.1355 256.112H72.2255C72.1283 256.11 72.0356 256.071 71.9669 256.002C71.8981 255.933 71.8587 255.841 71.8567 255.743C71.8567 255.646 71.8955 255.552 71.9647 255.483C72.0339 255.413 72.1277 255.375 72.2255 255.375H77.1355C77.2333 255.375 77.3271 255.413 77.3963 255.483C77.4655 255.552 77.5043 255.646 77.5043 255.743C77.5023 255.841 77.4629 255.933 77.3941 256.002C77.3254 256.071 77.2327 256.11 77.1355 256.112Z" fill="#263238"/>
<path d="M140.719 258.141C146.228 258.141 150.693 253.675 150.693 248.167C150.693 242.659 146.228 238.193 140.719 238.193C135.211 238.193 130.746 242.659 130.746 248.167C130.746 253.675 135.211 258.141 140.719 258.141Z" stroke="#263238" stroke-width="0.724166" stroke-linecap="round" stroke-linejoin="round"/>
<path d="M146.874 245.247L143.962 246.93V245.547C143.96 245.232 143.833 244.931 143.61 244.71C143.387 244.488 143.085 244.364 142.771 244.364H136.193C136.037 244.363 135.883 244.392 135.738 244.451C135.594 244.51 135.462 244.597 135.352 244.707C135.241 244.817 135.153 244.948 135.093 245.092C135.033 245.236 135.002 245.391 135.002 245.547V250.849C135.001 251.005 135.032 251.161 135.091 251.306C135.151 251.451 135.238 251.582 135.349 251.693C135.46 251.804 135.592 251.892 135.736 251.951C135.881 252.011 136.037 252.041 136.193 252.04H142.771C142.927 252.04 143.082 252.009 143.227 251.949C143.371 251.889 143.502 251.802 143.613 251.691C143.724 251.58 143.811 251.449 143.871 251.305C143.931 251.16 143.962 251.005 143.962 250.849V249.504L146.874 251.187V245.247Z" fill="#263238"/>
<path d="M107.702 258.141C113.21 258.141 117.676 253.675 117.676 248.167C117.676 242.659 113.21 238.193 107.702 238.193C102.194 238.193 97.7283 242.659 97.7283 248.167C97.7283 253.675 102.194 258.141 107.702 258.141Z" fill="#263238" stroke="#263238" stroke-width="0.724166" stroke-linecap="round" stroke-linejoin="round"/>
<path d="M112.75 246.062H102.654C102.374 246.062 102.098 246.123 101.845 246.242C101.591 246.36 101.367 246.533 101.188 246.748C101.009 246.963 100.88 247.214 100.809 247.485C100.738 247.755 100.728 248.038 100.779 248.313L101.071 249.896C101.092 250.003 101.149 250.1 101.233 250.17C101.317 250.24 101.422 250.279 101.532 250.28H104.605C104.732 250.28 104.853 250.23 104.942 250.141C105.031 250.051 105.082 249.93 105.082 249.804V248.09H110.384V249.804C110.384 249.93 110.434 250.051 110.523 250.141C110.612 250.23 110.734 250.28 110.86 250.28H113.933C114.044 250.28 114.151 250.242 114.237 250.172C114.322 250.102 114.381 250.004 114.402 249.896L114.694 248.313C114.746 248.032 114.734 247.743 114.66 247.468C114.585 247.192 114.449 246.937 114.263 246.721C114.076 246.504 113.843 246.333 113.581 246.219C113.32 246.105 113.036 246.051 112.75 246.062Z" fill="#FAB915"/>
<path d="M159.768 53.5507H150.378V58.6988H159.768V53.5507Z" stroke="#263238" stroke-width="0.821067" stroke-linecap="round" stroke-linejoin="round"/>
<path d="M157.701 53.5507H150.378V58.6988H157.701V53.5507Z" fill="#263238" stroke="#263238" stroke-width="0.725073" stroke-linecap="round" stroke-linejoin="round"/>
<path d="M161.066 54.9875H159.745V57.2543H161.066V54.9875Z" fill="#263238" stroke="#263238" stroke-width="0.725073" stroke-linecap="round" stroke-linejoin="round"/>
<path d="M54.6526 55.1412H52.9314V58.0918H54.6526V55.1412Z" fill="#263238" stroke="#263238" stroke-width="0.883086" stroke-linecap="round" stroke-linejoin="round"/>
<path d="M57.3574 54.1117H55.6362V58.0996H57.3574V54.1117Z" fill="#263238" stroke="#263238" stroke-width="0.883086" stroke-linecap="round" stroke-linejoin="round"/>
<path d="M60.062 52.8822H58.3408V58.0918H60.062V52.8822Z" fill="#263238" stroke="#263238" stroke-width="0.883086" stroke-linecap="round" stroke-linejoin="round"/>
<path d="M164.224 51.353H50.9875V263.035H164.224V51.353Z" stroke="#263238" stroke-linecap="round" stroke-linejoin="round"/>
<path d="M24.8931 277.427H312.353" stroke="#263238" stroke-width="1.01" stroke-linecap="round" stroke-linejoin="round"/>
<path d="M9.14111 277.427H16.7404" stroke="#263238" stroke-width="1.01" stroke-linecap="round" stroke-linejoin="round"/>
</g>
<defs>
<clipPath id="clip0_0_580">
<rect width="313" height="278.631" fill="white"/>
</clipPath>
</defs>
</svg>
